<svg width="388" height="196" viewBox="0 0 388 196" fill="none" xmlns="http://www.w3.org/2000/svg">
<path d="M54.0863 106.379H63.084L63.5338 106.942L63.9837 108.068V109.193L63.084 110.319H58.5851H54.0863L53.1865 108.63L53.6364 107.505L54.0863 106.379Z" fill="white" fill-opacity="0.0470588"/>
<path d="M102.674 136.011H125.903V131.295H120.792L118.934 128.347V124.81V122.451V119.503L118.469 105.354L118.934 87.0771V58.1882V32.2472L108.713 14.5601L103.603 6.30612L104.532 3.35828L106.39 1.58957L108.713 1H116.611L134.73 7.48526L144.486 21.0454L170.968 21.6349H197.914H223.466H249.947H372.342V20.3548L373.062 18.0975L373.992 15.7392L375.85 13.9705L379.102 12.7914H381.889L384.212 13.9705L385.606 15.1497L386.535 17.5079L387 21.0454V24.5828V39.9116V64.0839V123.63V128.347L385.606 130.116L374.921 130.705H347.975V136.011H362.841V148.392V154.878H360.983L364.7 160.184H367.023L367.952 157.236H373.992V174.333H367.023V169.027L355.873 161.363H340.077V169.027H334.037L327.068 144.855L310.808 136.601L314.989 135.422L295.012 136.601L287.579 141.317L279.681 169.027H273.176L268.995 153.698L259.703 140.728L242.587 134.939L225.324 143.676L216.962 169.027H211.851L213.71 155.467L205.347 147.213L202.095 144.855H199.307V151.34H203.024V153.698H199.307V167.259H202.559L204.882 165.49L205.347 163.721V159.005V147.213L213.179 154.943L206.741 154.878V160.773V165.49L205.812 167.259L203.953 169.617L201.63 170.206H198.843L197.449 170.796L195.126 171.385L193.268 168.438H196.984L197.449 143.676L218.355 144.265L193.268 143.676V168.438L195.126 171.385H194.662L190.945 170.206H173.755L174.22 167.259H190.945L191.409 161.952V153.698H183.047V151.34H191.409V144.855H174.22V144.265L127.55 141.317L126.367 124.81L239.958 127.943L256.451 128.398L297.8 129.539L298.264 130.116H266.208H253.664L259.703 132.474L264.814 135.422H282.933H288.043L289.437 134.832L292.689 132.474L295.477 131.295L298.264 130.705L297.8 129.539L340.077 130.705L233.222 127.757L126.367 124.81H356.802H379.567L382.354 121.272V41.0907V26.941V19.2766H377.244V25.1723L376.779 25.7619L375.85 26.941H257.845H231.364H212.052H178.866H154.707H144.022L142.163 26.3515L132.407 12.2018L123.58 9.25397L111.501 5.71655L110.107 6.30612V8.07483L124.045 29.8889V39.322V77.644V98.2789V118.324V122.451L124.974 124.22L126.367 124.81L127.55 141.317L164.463 143.183L171.287 143.528L172.826 143.676H168.18V156.646V168.438H172.361L172.203 143.616L174.22 144.265V151.34H177.007V153.698H174.22V167.259L173.755 170.206L171.897 170.796L170.038 171.385H168.18L165.857 170.206H161.676L156.566 166.079V161.363H160.282V164.9V165.49L162.141 167.259H166.322V153.698H162.141V151.34H166.322V144.855H162.141L160.282 147.213V151.34V161.363H156.566H154.707L153.778 164.9L150.99 167.848L148.668 169.027L146.345 168.438L144.022 167.259L140.885 164.9H132.872L129.155 167.848L125.903 169.027L123.58 167.848L119.863 164.9V160.184H116.611V169.027H106.855V171.975H104.532V170.206L103.138 148.982L102.674 136.011Z" fill="white"/>
<path d="M101.24 111.566L101.646 123.444L102.163 130.571L103.032 145.419L102.625 146.607L101.24 140.074L98.93 135.323L95.6964 130.571L91.539 127.008L86.9197 115.723L86.4577 96.1241V75.931V59.8953V33.7629H58.7417H48.5792L40.2644 34.3569L36.107 34.9508L32.4115 36.1386L27.3302 37.3264L22.7109 40.296L21.3251 41.4838L19.9393 45.6413L19.4774 48.0169H23.1728L21.3251 58.1135L14.3961 93.1546L7.46707 95.5302L6.54321 106.221H10.2387V124.632H6.54321V131.165H11.6245L10.2387 134.135L9.31481 135.917L6.54321 142.45L6.08127 144.825H13.4722V151.358H15.7819L14.3961 154.922V160.267H31.2911V154.328H14.627L15.7819 151.358H31.0257L32.4115 147.201L33.7973 142.45L36.5689 137.104L39.3405 132.947L41.1882 129.977L44.4218 127.008L50.4269 122.256L56.4321 119.287L64.7469 116.911H73.9855L80.4526 118.099L85.5339 119.881L86.4578 120.475V117.505L86.9197 114.536L86.9197 115.723L88.0974 118.6L91.539 127.008L85.9958 123.444L82.7623 122.256L78.143 121.069L68.9043 120.475L61.5133 121.663L53.1985 125.226L47.1934 129.383L42.1121 134.135L37.4928 141.856L34.7212 149.577L33.3354 159.079V164.425L33.7973 169.77H30.1018V164.425H22.249H6.54321V166.8L13.9341 168.582L19.4774 169.77H30.1018H33.7973H36.5689V169.176L37.4928 159.673L38.8786 153.14L40.7263 148.389L43.9599 141.856L49.965 135.917L53.6605 133.541L57.3559 131.759L64.7469 129.977L69.3662 128.79L77.2191 129.977L81.8384 131.759L85.9958 133.541L90.1532 137.104L92.4629 139.48L94.7726 143.044L97.0822 148.389L98.468 156.704V170.567L103.549 170.364V167.394V165.612V161.455L104.011 164.425L104.473 169.77V171.552V172.739H98.468H98.0061L94.7726 176.303L96.6203 158.485L92.9248 148.389L88.3055 143.637L84.61 138.886L61.9753 137.698L46.2695 148.983L41.6502 170.364L42.1121 172.145V173.333L40.2644 175.115H33.7973H30.1018H18.5535L6.54321 171.552L1.46193 169.77V160.861V151.952V145.419L2.84774 140.668L4.23354 136.51H1.46193L1 119.287V108.596L1.46193 97.9059L1.92387 95.5302L7.46707 71.7736L13.0103 50.9865L15.32 43.8595L16.7058 39.7021L18.5535 36.7325L21.3251 34.3569L30.5638 30.7934L39.3405 29.6055L53.6605 29.0116H58.2798L61.0514 28.4177L76.2952 23.0724L86.4577 20.6968L93.3867 21.2907L96.1583 22.4785L97.5442 24.2603L98.0061 34.3569L99.3919 66.4283L100.316 83.058L100.778 98.4998L101.24 111.566Z" fill="white"/>
<path d="M33.6217 53.1968H48.3528L63.0839 53.3907V81.1164L62.6235 82.3045L61.2425 83.4926L57.0994 84.0866L48.3528 85.8687L39.6062 87.6508L31.7804 89.4329L23.4941 90.621V85.8687H25.3355L27.6373 86.4628L30.3993 85.8687L32.7011 84.0866L33.6217 81.1164V53.1968Z" fill="white"/>
<path d="M24.394 54.1219L26.0552 53.1968H28.1315L29.7926 54.1219V81.5363L28.9621 82.1393L26.8857 82.7422L25.2246 82.1393L24.394 81.5363V54.1219Z" fill="white"/>
<path d="M132.768 12.2969C126.108 10.1727 112.59 5.92432 111.79 5.92432C111.022 6.41986 110.682 6.75599 110.791 8.0485L124.777 30.3524V121.692C125.049 123.994 125.655 124.752 127.773 124.879H379.504L382.501 121.692V19.7315H377.506V23.9799C377.498 25.5266 377.164 26.2263 375.953 27.1661H144.755C143.414 26.9223 142.752 26.4747 141.758 25.042L132.768 12.2969Z" stroke="black" stroke-width="0.5"/>
<path d="M166.732 151.431V145.058H162.736L160.738 147.182V165.238L162.736 167.362H166.732V153.555H162.736V151.431H166.732Z" stroke="black" stroke-width="0.5"/>
<path d="M172.725 143.996H168.73V168.424H172.725V143.996Z" stroke="black" stroke-width="0.5"/>
<path d="M191.705 145.058H174.723V151.431H177.72V153.555H174.723V167.362H191.705V153.555H183.714V151.431H191.705V145.058Z" stroke="black" stroke-width="0.5"/>
<path d="M197.699 143.996H194.702H193.703V168.424H197.699V143.996Z" stroke="black" stroke-width="0.5"/>
<path d="M202.693 145.058H199.696V151.431H203.692V153.555H199.696V167.362H202.693L205.69 165.238V147.182L202.693 145.058Z" stroke="black" stroke-width="0.5"/>
<path d="M299.59 130.189H253.639C259.436 132.163 262.108 133.321 265.626 135.499H288.602C292.081 132.729 294.5 131.566 299.59 130.189Z" stroke="black" stroke-width="0.5"/>
<path d="M96.5476 172.189H104.473L102.492 135.744L97.5383 24.2633C92.5848 14.6159 63.8544 27.479 60.8824 28.5509C57.9103 29.6229 48.8711 28.926 39.087 29.6229C29.5549 30.3019 19.736 33.4376 17.2915 38.1983C12.338 47.8456 2.43101 93.9385 1.44031 97.1543C0.449611 100.37 1.44031 135.744 1.44031 135.744H4.41241L1.44031 144.319V168.973L18.2822 174.333L40.0777 174.333L43.0497 172.189M24.2264 54.2772C24.2264 55.3491 24.2264 80.0035 24.2264 81.0754C24.2264 82.1473 30.1706 82.1473 30.1706 81.0754C30.1706 80.0035 30.1706 55.3491 30.1706 54.2772C30.1706 53.2053 27.1985 53.2053 27.1985 53.2053C27.1985 53.2053 24.2264 53.2053 24.2264 54.2772ZM33.1427 53.2053H62.8638V81.0754C62.5304 82.1519 62.1674 82.6605 60.8824 83.2193L23.2357 90.7227V85.3631C29.1216 86.7993 32.1038 85.9113 33.1427 81.0754V53.2053ZM19.2729 47.8456H23.2357L14.3194 92.8666L7.38452 95.0104L6.39382 105.73H10.3566V123.952H6.39382V130.384C6.39382 130.384 10.3566 130.384 11.3473 130.384C12.338 130.384 4.41241 144.319 6.39382 144.319C8.37522 144.319 13.3287 144.319 13.3287 144.319V150.751H31.1613C38.0962 119.665 65.3409 110.334 86.6406 119.665V33.6295C57.3995 33.6684 37.9723 32.811 26.2078 37.9173L21.2543 41.4141L19.2729 47.8456ZM14.3194 153.967L14.3194 159.326H31.1613L31.1613 153.967H14.3194ZM6.39383 163.614L30.1706 163.614V168.973L19.2729 168.974L6.39383 165.758V163.614ZM53.9475 110.017H62.8638C64.1153 108.512 64.0617 107.567 62.8638 105.73H53.9475C52.5616 107.609 52.6155 108.536 53.9475 110.017Z" stroke="black"/>
<path d="M68.6631 120.299C46.7193 122.431 30.7603 140.55 33.7526 169.327C34.9009 170.107 35.5546 170.088 36.7449 169.327C38.1231 142.556 47.7168 130.957 69.6605 128.826C75.6259 129.228 81.6297 130.957 85.6195 133.089C96.5913 140.55 99.3201 149.438 98.5862 170.393H103.573C103.032 162.293 105.568 143.747 97.5888 133.089C91.8216 123.729 78.6944 119.324 68.6631 120.299Z" stroke="black" stroke-width="0.5"/>
<path d="M78.6901 164.929C78.6901 170.011 74.8548 174.071 70.1956 174.071C65.5365 174.071 61.7012 170.011 61.7012 164.929C61.7012 159.846 65.5365 155.786 70.1956 155.786C74.8548 155.786 78.6901 159.846 78.6901 164.929Z" stroke="black"/>
<path d="M95.6776 164.928C95.6776 180.389 84.0434 192.5 70.1955 192.5C56.3476 192.5 44.7134 180.389 44.7134 164.928C44.7134 149.468 56.3476 137.357 70.1955 137.357C84.0434 137.357 95.6776 149.468 95.6776 164.928Z" fill="black" fill-opacity="0.2" stroke="black" stroke-width="7"/>
<path d="M78.6901 164.929C78.6901 170.011 74.8548 174.071 70.1956 174.071C65.5365 174.071 61.7012 170.011 61.7012 164.929C61.7012 159.846 65.5365 155.786 70.1956 155.786C74.8548 155.786 78.6901 159.846 78.6901 164.929Z" stroke="black"/>
<path d="M95.6776 164.928C95.6776 180.389 84.0434 192.5 70.1955 192.5C56.3476 192.5 44.7134 180.389 44.7134 164.928C44.7134 149.468 56.3476 137.357 70.1955 137.357C84.0434 137.357 95.6776 149.468 95.6776 164.928Z" fill="black" fill-opacity="0.2" stroke="black" stroke-width="7"/>
<path d="M254.581 164.929C254.581 170.011 250.746 174.071 246.087 174.071C241.428 174.071 237.592 170.011 237.592 164.929C237.592 159.846 241.428 155.786 246.087 155.786C250.746 155.786 254.581 159.846 254.581 164.929Z" stroke="black"/>
<path d="M271.569 164.928C271.569 180.389 259.935 192.5 246.087 192.5C232.239 192.5 220.605 180.389 220.605 164.928C220.605 149.468 232.239 137.357 246.087 137.357C259.935 137.357 271.569 149.468 271.569 164.928Z" fill="black" fill-opacity="0.2" stroke="black" stroke-width="7"/>
<path d="M314.544 164.929C314.544 170.011 310.709 174.071 306.05 174.071C301.391 174.071 297.555 170.011 297.555 164.929C297.555 159.846 301.391 155.786 306.05 155.786C310.709 155.786 314.544 159.846 314.544 164.929Z" stroke="black"/>
<path d="M331.532 164.928C331.532 180.389 319.898 192.5 306.05 192.5C292.202 192.5 280.568 180.389 280.568 164.928C280.568 149.468 292.202 137.357 306.05 137.357C319.898 137.357 331.532 149.468 331.532 164.928Z" fill="black" fill-opacity="0.2" stroke="black" stroke-width="7"/>
<path d="M102.674 135.815H125.7V131.535H120.694L118.692 128.325V32.0288L103.675 6.34979C104.125 3.36586 104.885 2.10053 107.679 1H116.69L134.71 7.41975L144.722 21.3292H372.32C372.231 10.9953 387 8.48971 387 21.3292C387 34.1687 387 128.325 387 128.325C386.056 130.196 385.107 130.547 382.995 130.465H347.955V135.815H362.972V155.074H360.97L364.975 160.424H366.977L367.978 157.214H373.985V174.333H366.977V168.984L355.964 161.494H339.946V168.984H332.938M279.877 168.984H271.868M218.807 168.984H211.799L213.801 155.074H206.793V165.774C204.811 169.44 203.184 170.598 198.784 170.054C195.576 171.928 193.833 171.683 190.775 170.054H173.755C170.772 171.747 169.026 171.834 165.746 170.054H161.741L156.736 165.774V161.494H154.733L153.732 164.704C149.728 170.054 146.418 170.331 140.717 164.704H132.708C127.7 170.455 124.849 170.195 119.693 164.704V160.424H116.69V168.984H106.678V172.193H104.676" stroke="black"/>
<g filter="url(#filter0_d_179_269)">
<mask id="path-18-outside-1_179_269" maskUnits="userSpaceOnUse" x="158.836" y="57.0112" width="175" height="36" fill="black">
<rect fill="white" x="158.836" y="57.0112" width="175" height="36"/>
<path d="M161.276 92.0112C161.02 92.0112 160.78 91.9152 160.556 91.7232C160.364 91.4992 160.268 91.2592 160.268 91.0032C160.268 90.8432 160.284 90.6992 160.316 90.5712L171.596 59.7552C171.692 59.4032 171.884 59.0992 172.172 58.8432C172.492 58.5552 172.924 58.4112 173.468 58.4112H180.572C181.116 58.4112 181.532 58.5552 181.82 58.8432C182.14 59.0992 182.348 59.4032 182.444 59.7552L193.676 90.5712C193.74 90.6992 193.772 90.8432 193.772 91.0032C193.772 91.2592 193.66 91.4992 193.436 91.7232C193.244 91.9152 193.004 92.0112 192.716 92.0112H186.812C186.332 92.0112 185.964 91.8992 185.708 91.6752C185.484 91.4192 185.34 91.1952 185.276 91.0032L183.404 86.1072H170.588L168.764 91.0032C168.7 91.1952 168.556 91.4192 168.332 91.6752C168.108 91.8992 167.724 92.0112 167.18 92.0112H161.276ZM172.556 79.1952H181.484L176.972 66.5232L172.556 79.1952ZM206.148 92.0112C205.796 92.0112 205.508 91.8992 205.284 91.6752C205.06 91.4512 204.948 91.1632 204.948 90.8112V65.9472H196.404C196.052 65.9472 195.764 65.8352 195.54 65.6112C195.316 65.3552 195.204 65.0672 195.204 64.7472V59.6112C195.204 59.2592 195.316 58.9712 195.54 58.7472C195.764 58.5232 196.052 58.4112 196.404 58.4112H222.228C222.58 58.4112 222.868 58.5232 223.092 58.7472C223.316 58.9712 223.428 59.2592 223.428 59.6112V64.7472C223.428 65.0672 223.316 65.3552 223.092 65.6112C222.868 65.8352 222.58 65.9472 222.228 65.9472H213.684V90.8112C213.684 91.1632 213.572 91.4512 213.348 91.6752C213.124 91.8992 212.836 92.0112 212.484 92.0112H206.148ZM228.99 92.0112C228.638 92.0112 228.35 91.8992 228.126 91.6752C227.902 91.4512 227.79 91.1632 227.79 90.8112V59.6112C227.79 59.2592 227.902 58.9712 228.126 58.7472C228.35 58.5232 228.638 58.4112 228.99 58.4112H251.982C252.334 58.4112 252.622 58.5232 252.846 58.7472C253.102 58.9712 253.23 59.2592 253.23 59.6112V64.4112C253.23 64.7632 253.102 65.0672 252.846 65.3232C252.622 65.5472 252.334 65.6592 251.982 65.6592H236.382V71.3712H243.102C246.942 71.3712 249.966 72.2832 252.174 74.1072C254.382 75.9312 255.486 78.4112 255.486 81.5472C255.486 83.0192 255.214 84.3952 254.67 85.6752C254.126 86.9232 253.326 88.0272 252.27 88.9872C251.246 89.9152 249.966 90.6512 248.43 91.1952C246.894 91.7392 245.118 92.0112 243.102 92.0112H228.99ZM236.382 85.7712H242.334C243.262 85.7712 244.03 85.5792 244.638 85.1952C245.278 84.7792 245.758 84.2512 246.078 83.6112C246.398 82.9392 246.558 82.2352 246.558 81.4992C246.558 80.3792 246.19 79.4192 245.454 78.6192C244.75 77.8192 243.71 77.4192 242.334 77.4192H236.382V85.7712ZM259.913 81.0672C259.561 81.0672 259.273 80.9552 259.049 80.7312C258.825 80.5072 258.713 80.2192 258.713 79.8672V75.3552C258.713 75.0032 258.825 74.7152 259.049 74.4912C259.273 74.2672 259.561 74.1552 259.913 74.1552H274.937C275.289 74.1552 275.577 74.2672 275.801 74.4912C276.025 74.7152 276.137 75.0032 276.137 75.3552V79.8672C276.137 80.2192 276.025 80.5072 275.801 80.7312C275.577 80.9552 275.289 81.0672 274.937 81.0672H259.913ZM290.882 92.0112C290.562 92.0112 290.274 91.8992 290.018 91.6752C289.794 91.4512 289.682 91.1632 289.682 90.8112V67.9632L283.106 73.0032C282.818 73.2272 282.514 73.3072 282.194 73.2432C281.906 73.1792 281.65 73.0032 281.426 72.7152L278.594 69.0192C278.402 68.7312 278.322 68.4272 278.354 68.1072C278.418 67.7552 278.61 67.4832 278.93 67.2912L289.97 58.7472C290.162 58.6192 290.338 58.5392 290.498 58.5072C290.69 58.4432 290.898 58.4112 291.122 58.4112H297.122C297.442 58.4112 297.714 58.5232 297.938 58.7472C298.194 58.9712 298.322 59.2592 298.322 59.6112V90.8112C298.322 91.1632 298.194 91.4512 297.938 91.6752C297.714 91.8992 297.442 92.0112 297.122 92.0112H290.882ZM320.118 92.0112C319.798 92.0112 319.51 91.8992 319.254 91.6752C319.03 91.4512 318.918 91.1632 318.918 90.8112V85.3872H303.99C303.67 85.3872 303.382 85.2752 303.126 85.0512C302.902 84.8272 302.79 84.5392 302.79 84.1872V79.6272C302.79 79.3392 302.838 79.0832 302.934 78.8592C303.062 78.6032 303.19 78.3632 303.318 78.1392L317.286 59.2272C317.702 58.6832 318.294 58.4112 319.062 58.4112H326.022C326.374 58.4112 326.662 58.5232 326.886 58.7472C327.142 58.9712 327.27 59.2592 327.27 59.6112V78.2352H331.494C331.878 78.2352 332.182 78.3632 332.406 78.6192C332.63 78.8432 332.742 79.1152 332.742 79.4352V84.1872C332.742 84.5392 332.614 84.8272 332.358 85.0512C332.134 85.2752 331.862 85.3872 331.542 85.3872H327.27V90.8112C327.27 91.1632 327.142 91.4512 326.886 91.6752C326.662 91.8992 326.374 92.0112 326.022 92.0112H320.118ZM311.046 78.5712H319.11V67.2432L311.046 78.5712Z"/>
</mask>
<path d="M161.276 92.0112C161.02 92.0112 160.78 91.9152 160.556 91.7232C160.364 91.4992 160.268 91.2592 160.268 91.0032C160.268 90.8432 160.284 90.6992 160.316 90.5712L171.596 59.7552C171.692 59.4032 171.884 59.0992 172.172 58.8432C172.492 58.5552 172.924 58.4112 173.468 58.4112H180.572C181.116 58.4112 181.532 58.5552 181.82 58.8432C182.14 59.0992 182.348 59.4032 182.444 59.7552L193.676 90.5712C193.74 90.6992 193.772 90.8432 193.772 91.0032C193.772 91.2592 193.66 91.4992 193.436 91.7232C193.244 91.9152 193.004 92.0112 192.716 92.0112H186.812C186.332 92.0112 185.964 91.8992 185.708 91.6752C185.484 91.4192 185.34 91.1952 185.276 91.0032L183.404 86.1072H170.588L168.764 91.0032C168.7 91.1952 168.556 91.4192 168.332 91.6752C168.108 91.8992 167.724 92.0112 167.18 92.0112H161.276ZM172.556 79.1952H181.484L176.972 66.5232L172.556 79.1952ZM206.148 92.0112C205.796 92.0112 205.508 91.8992 205.284 91.6752C205.06 91.4512 204.948 91.1632 204.948 90.8112V65.9472H196.404C196.052 65.9472 195.764 65.8352 195.54 65.6112C195.316 65.3552 195.204 65.0672 195.204 64.7472V59.6112C195.204 59.2592 195.316 58.9712 195.54 58.7472C195.764 58.5232 196.052 58.4112 196.404 58.4112H222.228C222.58 58.4112 222.868 58.5232 223.092 58.7472C223.316 58.9712 223.428 59.2592 223.428 59.6112V64.7472C223.428 65.0672 223.316 65.3552 223.092 65.6112C222.868 65.8352 222.58 65.9472 222.228 65.9472H213.684V90.8112C213.684 91.1632 213.572 91.4512 213.348 91.6752C213.124 91.8992 212.836 92.0112 212.484 92.0112H206.148ZM228.99 92.0112C228.638 92.0112 228.35 91.8992 228.126 91.6752C227.902 91.4512 227.79 91.1632 227.79 90.8112V59.6112C227.79 59.2592 227.902 58.9712 228.126 58.7472C228.35 58.5232 228.638 58.4112 228.99 58.4112H251.982C252.334 58.4112 252.622 58.5232 252.846 58.7472C253.102 58.9712 253.23 59.2592 253.23 59.6112V64.4112C253.23 64.7632 253.102 65.0672 252.846 65.3232C252.622 65.5472 252.334 65.6592 251.982 65.6592H236.382V71.3712H243.102C246.942 71.3712 249.966 72.2832 252.174 74.1072C254.382 75.9312 255.486 78.4112 255.486 81.5472C255.486 83.0192 255.214 84.3952 254.67 85.6752C254.126 86.9232 253.326 88.0272 252.27 88.9872C251.246 89.9152 249.966 90.6512 248.43 91.1952C246.894 91.7392 245.118 92.0112 243.102 92.0112H228.99ZM236.382 85.7712H242.334C243.262 85.7712 244.03 85.5792 244.638 85.1952C245.278 84.7792 245.758 84.2512 246.078 83.6112C246.398 82.9392 246.558 82.2352 246.558 81.4992C246.558 80.3792 246.19 79.4192 245.454 78.6192C244.75 77.8192 243.71 77.4192 242.334 77.4192H236.382V85.7712ZM259.913 81.0672C259.561 81.0672 259.273 80.9552 259.049 80.7312C258.825 80.5072 258.713 80.2192 258.713 79.8672V75.3552C258.713 75.0032 258.825 74.7152 259.049 74.4912C259.273 74.2672 259.561 74.1552 259.913 74.1552H274.937C275.289 74.1552 275.577 74.2672 275.801 74.4912C276.025 74.7152 276.137 75.0032 276.137 75.3552V79.8672C276.137 80.2192 276.025 80.5072 275.801 80.7312C275.577 80.9552 275.289 81.0672 274.937 81.0672H259.913ZM290.882 92.0112C290.562 92.0112 290.274 91.8992 290.018 91.6752C289.794 91.4512 289.682 91.1632 289.682 90.8112V67.9632L283.106 73.0032C282.818 73.2272 282.514 73.3072 282.194 73.2432C281.906 73.1792 281.65 73.0032 281.426 72.7152L278.594 69.0192C278.402 68.7312 278.322 68.4272 278.354 68.1072C278.418 67.7552 278.61 67.4832 278.93 67.2912L289.97 58.7472C290.162 58.6192 290.338 58.5392 290.498 58.5072C290.69 58.4432 290.898 58.4112 291.122 58.4112H297.122C297.442 58.4112 297.714 58.5232 297.938 58.7472C298.194 58.9712 298.322 59.2592 298.322 59.6112V90.8112C298.322 91.1632 298.194 91.4512 297.938 91.6752C297.714 91.8992 297.442 92.0112 297.122 92.0112H290.882ZM320.118 92.0112C319.798 92.0112 319.51 91.8992 319.254 91.6752C319.03 91.4512 318.918 91.1632 318.918 90.8112V85.3872H303.99C303.67 85.3872 303.382 85.2752 303.126 85.0512C302.902 84.8272 302.79 84.5392 302.79 84.1872V79.6272C302.79 79.3392 302.838 79.0832 302.934 78.8592C303.062 78.6032 303.19 78.3632 303.318 78.1392L317.286 59.2272C317.702 58.6832 318.294 58.4112 319.062 58.4112H326.022C326.374 58.4112 326.662 58.5232 326.886 58.7472C327.142 58.9712 327.27 59.2592 327.27 59.6112V78.2352H331.494C331.878 78.2352 332.182 78.3632 332.406 78.6192C332.63 78.8432 332.742 79.1152 332.742 79.4352V84.1872C332.742 84.5392 332.614 84.8272 332.358 85.0512C332.134 85.2752 331.862 85.3872 331.542 85.3872H327.27V90.8112C327.27 91.1632 327.142 91.4512 326.886 91.6752C326.662 91.8992 326.374 92.0112 326.022 92.0112H320.118ZM311.046 78.5712H319.11V67.2432L311.046 78.5712Z" fill="white"/>
<path d="M160.556 91.7232L159.797 92.374L159.847 92.4324L159.905 92.4825L160.556 91.7232ZM160.316 90.5712L159.377 90.2275L159.359 90.2773L159.346 90.3287L160.316 90.5712ZM171.596 59.7552L172.535 60.099L172.55 60.0592L172.561 60.0183L171.596 59.7552ZM172.172 58.8432L172.837 59.5907L172.841 59.5865L172.172 58.8432ZM181.82 58.8432L181.113 59.5503L181.152 59.5895L181.195 59.6241L181.82 58.8432ZM182.444 59.7552L181.479 60.0183L181.49 60.0585L181.505 60.0977L182.444 59.7552ZM193.676 90.5712L192.737 90.9137L192.756 90.9673L192.782 91.0184L193.676 90.5712ZM193.436 91.7232L194.143 92.4303L194.143 92.4303L193.436 91.7232ZM185.708 91.6752L184.956 92.3337L185 92.3839L185.05 92.4278L185.708 91.6752ZM185.276 91.0032L186.225 90.687L186.218 90.6664L186.21 90.6461L185.276 91.0032ZM183.404 86.1072L184.338 85.7501L184.092 85.1072H183.404V86.1072ZM170.588 86.1072V85.1072H169.894L169.651 85.7581L170.588 86.1072ZM168.764 91.0032L167.827 90.6541L167.821 90.6705L167.815 90.687L168.764 91.0032ZM168.332 91.6752L169.039 92.3823L169.063 92.3588L169.085 92.3337L168.332 91.6752ZM172.556 79.1952L171.612 78.8662L171.149 80.1952H172.556V79.1952ZM181.484 79.1952V80.1952H182.902L182.426 78.8598L181.484 79.1952ZM176.972 66.5232L177.914 66.1878L176.962 63.5135L176.028 66.1942L176.972 66.5232ZM161.276 91.0112C161.275 91.0112 161.276 91.0112 161.277 91.0115C161.279 91.0117 161.278 91.0118 161.276 91.0108C161.271 91.0088 161.247 90.9986 161.207 90.964L159.905 92.4825C160.281 92.8047 160.746 93.0112 161.276 93.0112V91.0112ZM161.315 91.0724C161.281 91.0321 161.271 91.0088 161.269 91.0038C161.268 91.0011 161.268 91.0008 161.268 91.0022C161.268 91.0037 161.268 91.0043 161.268 91.0032H159.268C159.268 91.5339 159.475 91.9981 159.797 92.374L161.315 91.0724ZM161.268 91.0032C161.268 90.9083 161.278 90.8478 161.286 90.8138L159.346 90.3287C159.291 90.5507 159.268 90.7781 159.268 91.0032H161.268ZM161.255 90.915L172.535 60.099L170.657 59.4115L159.377 90.2275L161.255 90.915ZM172.561 60.0183C172.603 59.8642 172.685 59.7254 172.837 59.5906L171.508 58.0958C171.083 58.4731 170.781 58.9422 170.631 59.4921L172.561 60.0183ZM172.841 59.5865C172.933 59.504 173.104 59.4112 173.468 59.4112V57.4112C172.745 57.4112 172.051 57.6065 171.503 58.0999L172.841 59.5865ZM173.468 59.4112H180.572V57.4112H173.468V59.4112ZM180.572 59.4112C180.943 59.4112 181.069 59.5062 181.113 59.5503L182.527 58.1361C181.995 57.6043 181.289 57.4112 180.572 57.4112V59.4112ZM181.195 59.6241C181.371 59.7649 181.446 59.8954 181.479 60.0183L183.409 59.4921C183.25 58.9111 182.909 58.4336 182.445 58.0624L181.195 59.6241ZM181.505 60.0977L192.737 90.9137L194.616 90.2288L183.384 59.4128L181.505 60.0977ZM192.782 91.0184C192.779 91.0131 192.777 91.0078 192.775 91.003C192.774 90.9983 192.773 90.9945 192.772 90.9922C192.771 90.9872 192.772 90.9901 192.772 91.0032H194.772C194.772 90.7065 194.712 90.4065 194.571 90.124L192.782 91.0184ZM192.772 91.0032C192.772 90.9936 192.773 90.9828 192.776 90.972C192.778 90.9613 192.781 90.9545 192.782 90.9523C192.784 90.9483 192.774 90.9708 192.729 91.0161L194.143 92.4303C194.508 92.066 194.772 91.5845 194.772 91.0032H192.772ZM192.729 91.0161C192.726 91.0197 192.725 91.0193 192.728 91.0172C192.732 91.0149 192.736 91.0126 192.741 91.0108C192.745 91.009 192.747 91.0089 192.744 91.0094C192.741 91.0099 192.733 91.0112 192.716 91.0112V93.0112C193.252 93.0112 193.751 92.8221 194.143 92.4303L192.729 91.0161ZM192.716 91.0112H186.812V93.0112H192.716V91.0112ZM186.812 91.0112C186.476 91.0112 186.378 90.9323 186.367 90.9227L185.05 92.4278C185.551 92.8662 186.189 93.0112 186.812 93.0112V91.0112ZM186.461 91.0167C186.373 90.9161 186.313 90.8356 186.273 90.7745C186.233 90.7119 186.224 90.6837 186.225 90.687L184.327 91.3195C184.453 91.6949 184.696 92.0367 184.956 92.3337L186.461 91.0167ZM186.21 90.6461L184.338 85.7501L182.47 86.4644L184.342 91.3604L186.21 90.6461ZM183.404 85.1072H170.588V87.1072H183.404V85.1072ZM169.651 85.7581L167.827 90.6541L169.701 91.3523L171.525 86.4563L169.651 85.7581ZM167.815 90.687C167.817 90.6837 167.807 90.7119 167.767 90.7745C167.728 90.8356 167.668 90.9161 167.58 91.0167L169.085 92.3337C169.345 92.0366 169.588 91.6949 169.713 91.3195L167.815 90.687ZM167.625 90.9681C167.659 90.934 167.668 90.9462 167.596 90.9672C167.521 90.9891 167.389 91.0112 167.18 91.0112V93.0112C167.812 93.0112 168.531 92.8902 169.039 92.3823L167.625 90.9681ZM167.18 91.0112H161.276V93.0112H167.18V91.0112ZM172.556 80.1952H181.484V78.1952H172.556V80.1952ZM182.426 78.8598L177.914 66.1878L176.03 66.8587L180.542 79.5307L182.426 78.8598ZM176.028 66.1942L171.612 78.8662L173.5 79.5243L177.916 66.8523L176.028 66.1942ZM205.284 91.6752L205.991 90.9681L205.284 91.6752ZM204.948 65.9472H205.948V64.9472H204.948V65.9472ZM195.54 65.6112L194.787 66.2697L194.809 66.2948L194.832 66.3183L195.54 65.6112ZM195.54 58.7472L196.247 59.4543L196.247 59.4543L195.54 58.7472ZM223.092 65.6112L223.799 66.3183L223.822 66.2948L223.844 66.2697L223.092 65.6112ZM213.684 65.9472V64.9472H212.684V65.9472H213.684ZM213.348 91.6752L214.055 92.3823L213.348 91.6752ZM206.148 91.0112C206.028 91.0112 206.005 90.9829 205.991 90.9681L204.576 92.3823C205.01 92.8155 205.563 93.0112 206.148 93.0112V91.0112ZM205.991 90.9681C205.976 90.9533 205.948 90.9303 205.948 90.8112H203.948C203.948 91.3961 204.143 91.9491 204.576 92.3823L205.991 90.9681ZM205.948 90.8112V65.9472H203.948V90.8112H205.948ZM204.948 64.9472H196.404V66.9472H204.948V64.9472ZM196.404 64.9472C196.284 64.9472 196.261 64.9189 196.247 64.9041L194.832 66.3183C195.266 66.7515 195.819 66.9472 196.404 66.9472V64.9472ZM196.292 64.9527C196.217 64.8665 196.204 64.8089 196.204 64.7472H194.204C194.204 65.3255 194.414 65.8439 194.787 66.2697L196.292 64.9527ZM196.204 64.7472V59.6112H194.204V64.7472H196.204ZM196.204 59.6112C196.204 59.4921 196.232 59.4691 196.247 59.4543L194.832 58.0401C194.399 58.4733 194.204 59.0263 194.204 59.6112H196.204ZM196.247 59.4543C196.261 59.4395 196.284 59.4112 196.404 59.4112V57.4112C195.819 57.4112 195.266 57.6069 194.832 58.0401L196.247 59.4543ZM196.404 59.4112H222.228V57.4112H196.404V59.4112ZM222.228 59.4112C222.347 59.4112 222.37 59.4395 222.384 59.4543L223.799 58.0401C223.365 57.6069 222.812 57.4112 222.228 57.4112V59.4112ZM222.384 59.4543C222.399 59.4691 222.428 59.4921 222.428 59.6112H224.428C224.428 59.0263 224.232 58.4733 223.799 58.0401L222.384 59.4543ZM222.428 59.6112V64.7472H224.428V59.6112H222.428ZM222.428 64.7472C222.428 64.8089 222.414 64.8665 222.339 64.9527L223.844 66.2697C224.217 65.8439 224.428 65.3255 224.428 64.7472H222.428ZM222.384 64.9041C222.37 64.9189 222.347 64.9472 222.228 64.9472V66.9472C222.812 66.9472 223.365 66.7515 223.799 66.3183L222.384 64.9041ZM222.228 64.9472H213.684V66.9472H222.228V64.9472ZM212.684 65.9472V90.8112H214.684V65.9472H212.684ZM212.684 90.8112C212.684 90.9303 212.655 90.9533 212.64 90.9681L214.055 92.3823C214.488 91.9491 214.684 91.3961 214.684 90.8112H212.684ZM212.64 90.9681C212.626 90.9829 212.603 91.0112 212.484 91.0112V93.0112C213.068 93.0112 213.621 92.8155 214.055 92.3823L212.64 90.9681ZM212.484 91.0112H206.148V93.0112H212.484V91.0112ZM228.126 91.6752L228.833 90.9681L228.126 91.6752ZM228.126 58.7472L228.833 59.4543V59.4543L228.126 58.7472ZM252.846 58.7472L252.139 59.4543L252.162 59.4779L252.187 59.4998L252.846 58.7472ZM252.846 65.3232L252.139 64.6161V64.6161L252.846 65.3232ZM236.382 65.6592V64.6592H235.382V65.6592H236.382ZM236.382 71.3712H235.382V72.3712H236.382V71.3712ZM252.174 74.1072L252.811 73.3363L252.174 74.1072ZM254.67 85.6752L255.587 86.0748L255.59 86.0664L254.67 85.6752ZM252.27 88.9872L252.941 89.7282L252.943 89.7272L252.27 88.9872ZM248.43 91.1952L248.096 90.2526L248.43 91.1952ZM236.382 85.7712H235.382V86.7712H236.382V85.7712ZM244.638 85.1952L245.172 86.0408L245.183 86.0337L244.638 85.1952ZM246.078 83.6112L246.972 84.0584L246.977 84.0498L246.981 84.0412L246.078 83.6112ZM245.454 78.6192L244.703 79.2799L244.711 79.2882L244.718 79.2963L245.454 78.6192ZM236.382 77.4192V76.4192H235.382V77.4192H236.382ZM228.99 91.0112C228.871 91.0112 228.848 90.9829 228.833 90.9681L227.419 92.3823C227.852 92.8155 228.405 93.0112 228.99 93.0112V91.0112ZM228.833 90.9681C228.818 90.9533 228.79 90.9303 228.79 90.8112H226.79C226.79 91.3961 226.986 91.9491 227.419 92.3823L228.833 90.9681ZM228.79 90.8112V59.6112H226.79V90.8112H228.79ZM228.79 59.6112C228.79 59.4921 228.818 59.4691 228.833 59.4543L227.419 58.0401C226.986 58.4733 226.79 59.0263 226.79 59.6112H228.79ZM228.833 59.4543C228.848 59.4395 228.871 59.4112 228.99 59.4112V57.4112C228.405 57.4112 227.852 57.6069 227.419 58.0401L228.833 59.4543ZM228.99 59.4112H251.982V57.4112H228.99V59.4112ZM251.982 59.4112C252.101 59.4112 252.124 59.4395 252.139 59.4543L253.553 58.0401C253.12 57.6069 252.567 57.4112 251.982 57.4112V59.4112ZM252.187 59.4998C252.215 59.5239 252.22 59.5363 252.22 59.5374C252.221 59.5393 252.23 59.5587 252.23 59.6112H254.23C254.23 58.9823 253.986 58.416 253.504 57.9947L252.187 59.4998ZM252.23 59.6112V64.4112H254.23V59.6112H252.23ZM252.23 64.4112C252.23 64.4897 252.213 64.5417 252.139 64.6161L253.553 66.0303C253.991 65.5928 254.23 65.0368 254.23 64.4112H252.23ZM252.139 64.6161C252.124 64.6309 252.101 64.6592 251.982 64.6592V66.6592C252.567 66.6592 253.12 66.4635 253.553 66.0303L252.139 64.6161ZM251.982 64.6592H236.382V66.6592H251.982V64.6592ZM235.382 65.6592V71.3712H237.382V65.6592H235.382ZM236.382 72.3712H243.102V70.3712H236.382V72.3712ZM243.102 72.3712C246.789 72.3712 249.561 73.246 251.537 74.8782L252.811 73.3363C250.371 71.3205 247.095 70.3712 243.102 70.3712V72.3712ZM251.537 74.8782C253.491 76.4926 254.486 78.6773 254.486 81.5472H256.486C256.486 78.1451 255.272 75.3698 252.811 73.3363L251.537 74.8782ZM254.486 81.5472C254.486 82.8928 254.238 84.1349 253.75 85.2841L255.59 86.0664C256.19 84.6555 256.486 83.1457 256.486 81.5472H254.486ZM253.753 85.2756C253.268 86.388 252.554 87.3776 251.597 88.2473L252.943 89.7272C254.098 88.6769 254.984 87.4585 255.587 86.0748L253.753 85.2756ZM251.598 88.2462C250.688 89.0709 249.529 89.745 248.096 90.2526L248.764 92.1379C250.403 91.5574 251.803 90.7596 252.941 89.7282L251.598 88.2462ZM248.096 90.2526C246.689 90.7508 245.03 91.0112 243.102 91.0112V93.0112C245.206 93.0112 247.099 92.7276 248.764 92.1379L248.096 90.2526ZM243.102 91.0112H228.99V93.0112H243.102V91.0112ZM236.382 86.7712H242.334V84.7712H236.382V86.7712ZM242.334 86.7712C243.397 86.7712 244.364 86.5511 245.172 86.0407L244.104 84.3497C243.696 84.6073 243.127 84.7712 242.334 84.7712V86.7712ZM245.183 86.0337C245.962 85.5274 246.567 84.8683 246.972 84.0584L245.184 83.164C244.948 83.6342 244.594 84.0311 244.093 84.3568L245.183 86.0337ZM246.981 84.0412C247.364 83.2364 247.558 82.3857 247.558 81.4992H245.558C245.558 82.0848 245.432 82.642 245.175 83.1813L246.981 84.0412ZM247.558 81.4992C247.558 80.1368 247.101 78.9328 246.19 77.9422L244.718 79.2963C245.279 79.9056 245.558 80.6217 245.558 81.4992H247.558ZM246.205 77.9586C245.259 76.8839 243.908 76.4192 242.334 76.4192V78.4192C243.512 78.4192 244.241 78.7546 244.703 79.2799L246.205 77.9586ZM242.334 76.4192H236.382V78.4192H242.334V76.4192ZM235.382 77.4192V85.7712H237.382V77.4192H235.382ZM259.913 80.0672C259.794 80.0672 259.771 80.0389 259.756 80.0241L258.342 81.4383C258.775 81.8715 259.328 82.0672 259.913 82.0672V80.0672ZM259.756 80.0241C259.741 80.0093 259.713 79.9863 259.713 79.8672H257.713C257.713 80.4521 257.908 81.0051 258.342 81.4383L259.756 80.0241ZM259.713 79.8672V75.3552H257.713V79.8672H259.713ZM259.713 75.3552C259.713 75.2361 259.741 75.2131 259.756 75.1983L258.342 73.7841C257.908 74.2173 257.713 74.7703 257.713 75.3552H259.713ZM259.756 75.1983C259.771 75.1835 259.794 75.1552 259.913 75.1552V73.1552C259.328 73.1552 258.775 73.3509 258.342 73.7841L259.756 75.1983ZM259.913 75.1552H274.937V73.1552H259.913V75.1552ZM274.937 75.1552C275.056 75.1552 275.079 75.1835 275.094 75.1983L276.508 73.7841C276.075 73.3509 275.522 73.1552 274.937 73.1552V75.1552ZM275.094 75.1983C275.108 75.2131 275.137 75.2361 275.137 75.3552H277.137C277.137 74.7703 276.941 74.2173 276.508 73.7841L275.094 75.1983ZM275.137 75.3552V79.8672H277.137V75.3552H275.137ZM275.137 79.8672C275.137 79.9863 275.108 80.0093 275.094 80.0241L276.508 81.4383C276.941 81.0051 277.137 80.4521 277.137 79.8672H275.137ZM275.094 80.0241C275.079 80.0389 275.056 80.0672 274.937 80.0672V82.0672C275.522 82.0672 276.075 81.8715 276.508 81.4383L275.094 80.0241ZM274.937 80.0672H259.913V82.0672H274.937V80.0672ZM290.018 91.6752L289.311 92.3823L289.335 92.4059L289.36 92.4278L290.018 91.6752ZM289.682 67.9632H290.682V65.9369L289.074 67.1695L289.682 67.9632ZM283.106 73.0032L282.498 72.2095L282.492 72.2139L283.106 73.0032ZM282.194 73.2432L281.977 74.2194L281.988 74.2217L281.998 74.2238L282.194 73.2432ZM281.426 72.7152L280.632 73.3235L280.637 73.3292L281.426 72.7152ZM278.594 69.0192L277.762 69.5739L277.78 69.6013L277.8 69.6274L278.594 69.0192ZM278.354 68.1072L277.37 67.9283L277.363 67.9678L277.359 68.0077L278.354 68.1072ZM278.93 67.2912L279.445 68.1487L279.495 68.1183L279.542 68.0821L278.93 67.2912ZM289.97 58.7472L289.415 57.9152L289.386 57.9348L289.358 57.9564L289.97 58.7472ZM290.498 58.5072L290.694 59.4878L290.755 59.4756L290.814 59.4559L290.498 58.5072ZM297.938 58.7472L297.231 59.4543L297.255 59.4779L297.28 59.4998L297.938 58.7472ZM297.938 91.6752L297.28 90.9227L297.255 90.9446L297.231 90.9681L297.938 91.6752ZM290.882 91.0112C290.82 91.0112 290.763 90.9981 290.677 90.9227L289.36 92.4278C289.785 92.8004 290.304 93.0112 290.882 93.0112V91.0112ZM290.725 90.9681C290.71 90.9533 290.682 90.9303 290.682 90.8112H288.682C288.682 91.3961 288.878 91.9491 289.311 92.3823L290.725 90.9681ZM290.682 90.8112V67.9632H288.682V90.8112H290.682ZM289.074 67.1695L282.498 72.2095L283.714 73.7969L290.29 68.7569L289.074 67.1695ZM282.492 72.2139C282.438 72.2562 282.41 72.2636 282.408 72.2642C282.406 72.2646 282.406 72.2646 282.406 72.2646C282.405 72.2646 282.401 72.2647 282.39 72.2626L281.998 74.2238C282.639 74.3519 283.233 74.1714 283.72 73.7926L282.492 72.2139ZM282.411 72.267C282.4 72.2646 282.332 72.2505 282.216 72.1013L280.637 73.3292C280.969 73.756 281.412 74.0939 281.977 74.2194L282.411 72.267ZM282.22 72.107L279.388 68.411L277.8 69.6274L280.632 73.3234L282.22 72.107ZM279.426 68.4645C279.352 68.3534 279.342 68.2782 279.349 68.2067L277.359 68.0077C277.302 68.5763 277.452 69.1091 277.762 69.5739L279.426 68.4645ZM279.338 68.2861C279.346 68.2424 279.357 68.2243 279.363 68.2159C279.37 68.2065 279.389 68.1818 279.445 68.1487L278.416 66.4337C277.861 66.7666 277.488 67.2795 277.37 67.9283L279.338 68.2861ZM279.542 68.0821L290.582 59.5381L289.358 57.9564L278.318 66.5004L279.542 68.0821ZM290.525 59.5793C290.584 59.5396 290.629 59.5155 290.66 59.5016C290.691 59.4876 290.702 59.4864 290.694 59.4878L290.302 57.5266C289.973 57.5925 289.675 57.7425 289.415 57.9152L290.525 59.5793ZM290.814 59.4559C290.894 59.4293 290.994 59.4112 291.122 59.4112V57.4112C290.802 57.4112 290.486 57.4571 290.182 57.5585L290.814 59.4559ZM291.122 59.4112H297.122V57.4112H291.122V59.4112ZM297.122 59.4112C297.163 59.4112 297.18 59.4179 297.185 59.4199C297.19 59.4219 297.205 59.4284 297.231 59.4543L298.645 58.0401C298.232 57.6265 297.704 57.4112 297.122 57.4112V59.4112ZM297.28 59.4998C297.307 59.5239 297.312 59.5363 297.312 59.5374C297.313 59.5393 297.322 59.5587 297.322 59.6112H299.322C299.322 58.9823 299.078 58.416 298.597 57.9947L297.28 59.4998ZM297.322 59.6112V90.8112H299.322V59.6112H297.322ZM297.322 90.8112C297.322 90.8637 297.313 90.8831 297.312 90.8851C297.312 90.8862 297.307 90.8985 297.28 90.9227L298.597 92.4278C299.078 92.0065 299.322 91.4401 299.322 90.8112H297.322ZM297.231 90.9681C297.205 90.994 297.19 91.0006 297.185 91.0026C297.18 91.0046 297.163 91.0112 297.122 91.0112V93.0112C297.704 93.0112 298.232 92.796 298.645 92.3823L297.231 90.9681ZM297.122 91.0112H290.882V93.0112H297.122V91.0112ZM319.254 91.6752L318.546 92.3823L318.57 92.4059L318.595 92.4278L319.254 91.6752ZM318.918 85.3872H319.918V84.3872H318.918V85.3872ZM303.126 85.0512L302.418 85.7583L302.442 85.7819L302.467 85.8038L303.126 85.0512ZM302.934 78.8592L302.039 78.412L302.026 78.4383L302.014 78.4653L302.934 78.8592ZM303.318 78.1392L302.513 77.5451L302.478 77.5922L302.449 77.6431L303.318 78.1392ZM317.286 59.2272L316.491 58.6198L316.486 58.6264L316.481 58.6331L317.286 59.2272ZM326.886 58.7472L326.178 59.4543L326.202 59.4779L326.227 59.4998L326.886 58.7472ZM327.27 78.2352H326.27V79.2352H327.27V78.2352ZM332.406 78.6192L331.653 79.2777L331.675 79.3028L331.698 79.3263L332.406 78.6192ZM332.358 85.0512L331.699 84.2987L331.674 84.3206L331.65 84.3441L332.358 85.0512ZM327.27 85.3872V84.3872H326.27V85.3872H327.27ZM326.886 91.6752L326.227 90.9227L326.202 90.9446L326.178 90.9681L326.886 91.6752ZM311.046 78.5712L310.231 77.9913L309.106 79.5712H311.046V78.5712ZM319.11 78.5712V79.5712H320.11V78.5712H319.11ZM319.11 67.2432H320.11V64.1141L318.295 66.6633L319.11 67.2432ZM320.118 91.0112C320.056 91.0112 319.998 90.9981 319.912 90.9227L318.595 92.4278C319.021 92.8004 319.539 93.0112 320.118 93.0112V91.0112ZM319.961 90.9681C319.946 90.9533 319.918 90.9303 319.918 90.8112H317.918C317.918 91.3961 318.113 91.9491 318.546 92.3823L319.961 90.9681ZM319.918 90.8112V85.3872H317.918V90.8112H319.918ZM318.918 84.3872H303.99V86.3872H318.918V84.3872ZM303.99 84.3872C303.928 84.3872 303.87 84.3741 303.784 84.2987L302.467 85.8038C302.893 86.1764 303.411 86.3872 303.99 86.3872V84.3872ZM303.833 84.3441C303.818 84.3293 303.79 84.3063 303.79 84.1872H301.79C301.79 84.7721 301.985 85.3251 302.418 85.7583L303.833 84.3441ZM303.79 84.1872V79.6272H301.79V84.1872H303.79ZM303.79 79.6272C303.79 79.4504 303.819 79.3322 303.853 79.2531L302.014 78.4653C301.856 78.8343 301.79 79.228 301.79 79.6272H303.79ZM303.828 79.3064C303.949 79.0652 304.068 78.8417 304.186 78.6354L302.449 77.6431C302.311 77.8848 302.175 78.1412 302.039 78.412L303.828 79.3064ZM304.122 78.7333L318.09 59.8213L316.481 58.6331L302.513 77.5451L304.122 78.7333ZM318.08 59.8347C318.282 59.5705 318.562 59.4112 319.062 59.4112V57.4112C318.025 57.4112 317.121 57.7959 316.491 58.6198L318.08 59.8347ZM319.062 59.4112H326.022V57.4112H319.062V59.4112ZM326.022 59.4112C326.141 59.4112 326.164 59.4395 326.178 59.4543L327.593 58.0401C327.159 57.6069 326.606 57.4112 326.022 57.4112V59.4112ZM326.227 59.4998C326.255 59.5239 326.259 59.5363 326.26 59.5374C326.261 59.5393 326.27 59.5587 326.27 59.6112H328.27C328.27 58.9823 328.026 58.416 327.544 57.9947L326.227 59.4998ZM326.27 59.6112V78.2352H328.27V59.6112H326.27ZM327.27 79.2352H331.494V77.2352H327.27V79.2352ZM331.494 79.2352C331.574 79.2352 331.611 79.2484 331.622 79.2529C331.629 79.2561 331.638 79.2603 331.653 79.2777L333.158 77.9607C332.719 77.4584 332.124 77.2352 331.494 77.2352V79.2352ZM331.698 79.3263C331.724 79.3522 331.731 79.3672 331.733 79.372C331.735 79.377 331.742 79.3943 331.742 79.4352H333.742C333.742 78.853 333.526 78.3258 333.113 77.9121L331.698 79.3263ZM331.742 79.4352V84.1872H333.742V79.4352H331.742ZM331.742 84.1872C331.742 84.2397 331.733 84.2591 331.732 84.2611C331.731 84.2622 331.727 84.2745 331.699 84.2987L333.016 85.8038C333.498 85.3825 333.742 84.8161 333.742 84.1872H331.742ZM331.65 84.3441C331.625 84.37 331.61 84.3766 331.605 84.3786C331.6 84.3806 331.582 84.3872 331.542 84.3872V86.3872C332.124 86.3872 332.651 86.172 333.065 85.7583L331.65 84.3441ZM331.542 84.3872H327.27V86.3872H331.542V84.3872ZM326.27 85.3872V90.8112H328.27V85.3872H326.27ZM326.27 90.8112C326.27 90.8637 326.261 90.8831 326.26 90.8851C326.259 90.8862 326.255 90.8985 326.227 90.9227L327.544 92.4278C328.026 92.0065 328.27 91.4401 328.27 90.8112H326.27ZM326.178 90.9681C326.164 90.9829 326.141 91.0112 326.022 91.0112V93.0112C326.606 93.0112 327.159 92.8155 327.593 92.3823L326.178 90.9681ZM326.022 91.0112H320.118V93.0112H326.022V91.0112ZM311.046 79.5712H319.11V77.5712H311.046V79.5712ZM320.11 78.5712V67.2432H318.11V78.5712H320.11ZM318.295 66.6633L310.231 77.9913L311.86 79.1512L319.924 67.8232L318.295 66.6633Z" fill="black" mask="url(#path-18-outside-1_179_269)"/>
</g>
<defs>
<filter id="filter0_d_179_269" x="155.268" y="57.4111" width="182.473" height="43.6001" filterUnits="userSpaceOnUse" color-interpolation-filters="sRGB">
<feFlood flood-opacity="0" result="BackgroundImageFix"/>
<feColorMatrix in="SourceAlpha" type="matrix" values="0 0 0 0 0 0 0 0 0 0 0 0 0 0 0 0 0 0 127 0" result="hardAlpha"/>
<feOffset dy="4"/>
<feGaussianBlur stdDeviation="2"/>
<feComposite in2="hardAlpha" operator="out"/>
<feColorMatrix type="matrix" values="0 0 0 0 0 0 0 0 0 0 0 0 0 0 0 0 0 0 0.25 0"/>
<feBlend mode="normal" in2="BackgroundImageFix" result="effect1_dropShadow_179_269"/>
<feBlend mode="normal" in="SourceGraphic" in2="effect1_dropShadow_179_269" result="shape"/>
</filter>
</defs>
</svg>
