<svg width="179" height="90" viewBox="0 0 179 90" fill="none" xmlns="http://www.w3.org/2000/svg">
<path d="M25.3427 49.096H29.4685L29.6748 49.3528L29.8811 49.8665V50.3802L29.4685 50.8939H27.4056H25.3427L24.9301 50.1234L25.1364 49.6097L25.3427 49.096Z" fill="white" fill-opacity="0.0470588"/>
<path d="M47.6224 62.6206H58.2741V60.4679H55.9308L55.0786 59.1225V57.5079V56.4316V55.0862L54.8656 48.6281L55.0786 40.2865V27.1013V15.2615L50.3918 7.18897L48.0484 3.42177L48.4745 2.07634L49.3267 1.26909L50.3918 1H54.0134L62.3218 3.95994L66.7956 10.1489L78.9386 10.418H91.2946H103.012H115.155H171.278V9.83374L171.609 8.80348L172.035 7.72714L172.887 6.91988L174.378 6.38171H175.657L176.722 6.91988L177.361 7.45805L177.787 8.53439L178 10.1489V11.7634V18.7596V29.7921V56.9698V59.1225L177.361 59.9297L172.461 60.1988H160.105V62.6206H166.922V68.2714V71.2313H166.07L167.774 73.6531H168.839L169.266 72.3076H172.035V80.1111H168.839V77.6894L163.727 74.1912H156.483V77.6894H153.714L150.518 66.6568L143.062 62.8897L144.98 62.3515L135.819 62.8897L132.41 65.0423L128.789 77.6894H125.806L123.889 70.6931L119.628 64.7733L111.78 62.1313L103.864 66.1187L100.029 77.6894H97.6857L98.5378 71.5004L94.7032 67.7332L93.2119 66.6568H91.9337V69.6168H93.638V70.6931H91.9337V76.8821H93.425L94.4901 76.0748L94.7032 75.2676V73.1149V67.7332L98.2943 71.2612L95.3423 71.2313V73.9222V76.0748L94.9162 76.8821L94.0641 77.9584L92.9989 78.2275H91.7207L91.0816 78.4966L90.0164 78.7657L89.1643 77.4203H90.8685L91.0816 66.1187L100.668 66.3878L89.1643 66.1187V77.4203L90.0164 78.7657H89.8034L88.0991 78.2275H80.2168L80.4298 76.8821H88.0991L88.3121 74.4603V70.6931H84.4775V69.6168H88.3121V66.6568H80.4298V66.3878L59.0294 65.0423L58.4872 57.5079L110.574 58.9382L118.137 59.1459L137.097 59.6665L137.31 59.9297H122.611H116.859L119.628 61.0061L121.972 62.3515H130.28H132.623L133.263 62.0824L134.754 61.0061L136.032 60.4679L137.31 60.1988L137.097 59.6665L156.483 60.1988L107.485 58.8534L58.4872 57.5079H164.153H174.591L175.87 55.8934V19.2978V12.8398V9.34165H173.526V12.0325L173.313 12.3016L172.887 12.8398H118.776H106.633H97.778H82.5602H71.4823H66.5825L65.7304 12.5707L61.2566 6.11262L57.209 4.7672L51.67 3.15268L51.0309 3.42177V4.22903L57.422 14.1852V18.4905V35.9811V45.3991V54.548V56.4316L57.8481 57.2389L58.4872 57.5079L59.0294 65.0423L75.9561 65.8937L79.0851 66.051L79.7907 66.1187H77.6604V72.0386V77.4203H79.5777L79.5052 66.0913L80.4298 66.3878V69.6168H81.708V70.6931H80.4298V76.8821L80.2168 78.2275L79.3646 78.4966L78.5125 78.7657H77.6604L76.5952 78.2275H74.6779L72.3345 76.3439V74.1912H74.0388V75.8058V76.0748L74.8909 76.8821H76.8082V70.6931H74.8909V69.6168H76.8082V66.6568H74.8909L74.0388 67.7332V69.6168V74.1912H72.3345H71.4823L71.0563 75.8058L69.778 77.1512L68.7129 77.6894L67.6477 77.4203L66.5825 76.8821L65.1443 75.8058H61.4697L59.7654 77.1512L58.2741 77.6894L57.209 77.1512L55.5047 75.8058V73.6531H54.0134V77.6894H49.5397V79.0348H48.4745V78.2275L47.8354 68.5404L47.6224 62.6206Z" fill="white"/>
<path d="M46.9648 51.4635L47.1512 56.8849L47.3884 60.1377L47.7867 66.9145L47.6003 67.4566L46.9648 64.4749L45.9057 62.3063L44.423 60.1377L42.5166 58.5113L40.3984 53.361L40.1866 44.4157V35.1994V27.8805V15.9534H27.4774H22.8174L19.0047 16.2245L17.0983 16.4956L15.4037 17.0377L13.0737 17.5798L10.9555 18.9352L10.3201 19.4773L9.6846 21.3748L9.47278 22.4591H11.1673L10.3201 27.0673L7.14276 43.0604L3.96547 44.1447L3.54183 49.0239H5.23639V57.4271H3.54183V60.4088H5.87185L5.23639 61.7642L4.81275 62.5774L3.54183 65.5591L3.33001 66.6434H6.71912V69.6252H7.77822L7.14276 71.2516V73.6912H14.89V70.9805H7.24867L7.77822 69.6252H14.7683L15.4037 67.7277L16.0392 65.5591L17.3101 63.1195L18.581 61.222L19.4283 59.8667L20.911 58.5113L23.6647 56.3428L26.4183 54.9874L30.2311 53.9032H34.4675L37.4329 54.4453L39.763 55.2585L40.1866 55.5296V54.1742L40.3984 52.8189L40.3984 53.361L40.9384 54.6741L42.5166 58.5113L39.9748 56.8849L38.492 56.3428L36.3738 55.8006L32.1375 55.5296L28.7483 56.0717L24.9356 57.6981L22.1819 59.5956L19.8519 61.7642L17.7337 65.2881L16.4628 68.812L15.8274 73.1491V75.5887L16.0392 78.0283H14.3446V75.5887H10.7437H3.54183V76.673L6.93094 77.4862L9.47278 78.0283H14.3446H16.0392H17.3101V77.7573L17.7337 73.4202L18.3692 70.4384L19.2165 68.2698L20.6992 65.2881L23.4529 62.5774L25.1474 61.4931L26.842 60.6799L30.2311 59.8667L32.3493 59.3245L35.9502 59.8667L38.0684 60.6799L39.9748 61.4931L41.8811 63.1195L42.9402 64.2038L43.9993 65.8302L45.0584 68.2698L45.6939 72.0648V78.3921L48.0239 78.2994V76.9441V76.1309V74.2334L48.2357 75.5887L48.4476 78.0283V78.8415V79.3837H45.6939H45.4821L43.9993 81.0101L44.8466 72.878L43.1521 68.2698L41.0339 66.1013L39.3393 63.9327L28.9602 63.3906L21.7583 68.5409L19.6401 78.2994L19.8519 79.1126V79.6548L19.0047 80.468H16.0392H14.3446H9.04914L3.54183 78.8415L1.21182 78.0283V73.9623V69.8963V66.9145L1.84728 64.7459L2.48274 62.8484H1.21182L1 54.9874V50.1082L1.21182 45.2289L1.42364 44.1447L3.96547 33.3019L6.50731 23.8144L7.5664 20.5616L8.20186 18.6641L9.04914 17.3088L10.3201 16.2245L14.5564 14.5981L18.581 14.0559L25.1474 13.7849H27.2656L28.5365 13.5138L35.5266 11.0742L40.1866 9.9899L43.3639 10.261L44.6348 10.8031L45.2702 11.6163L45.4821 16.2245L46.1175 30.8623L46.5412 38.4522L46.753 45.5L46.9648 51.4635Z" fill="white"/>
<path d="M15.9587 24.8232H22.7136L29.4685 24.9118V37.5661L29.2574 38.1083L28.6242 38.6506L26.7243 38.9217L22.7136 39.735L18.7029 40.5484L15.1143 41.3618L11.3147 41.904V39.735H12.1591L13.2145 40.0062L14.4811 39.735L15.5365 38.9217L15.9587 37.5661V24.8232Z" fill="white"/>
<path d="M11.7273 25.2455L12.489 24.8232H13.4411L14.2028 25.2455V37.7577L13.8219 38.0329L12.8698 38.3081L12.1081 38.0329L11.7273 37.7577V25.2455Z" fill="white"/>
<path d="M61.4221 6.15597C58.3684 5.18647 52.1693 3.24747 51.8029 3.24747C51.4507 3.47365 51.2947 3.62706 51.3448 4.21697L57.7577 14.3967V56.0852C57.8827 57.1356 58.1603 57.4817 59.1318 57.5394H174.563L175.937 56.0852V9.54922H173.647V11.4882C173.643 12.1941 173.49 12.5135 172.934 12.9425H66.9189C66.3039 12.8312 66.0003 12.6269 65.5447 11.973L61.4221 6.15597Z" stroke="black" stroke-width="0.5"/>
<path d="M76.9962 69.6581V66.7497H75.1639L74.2478 67.7192V75.9599L75.1639 76.9294H76.9962V70.6276H75.1639V69.6581H76.9962Z" stroke="black" stroke-width="0.5"/>
<path d="M79.7445 66.2649H77.9123V77.4141H79.7445V66.2649Z" stroke="black" stroke-width="0.5"/>
<path d="M88.4477 66.7497H80.6607V69.6581H82.0348V70.6276H80.6607V76.9294H88.4477V70.6276H84.7832V69.6581H88.4477V66.7497Z" stroke="black" stroke-width="0.5"/>
<path d="M91.196 66.2649H89.8219H89.3638V77.4141H91.196V66.2649Z" stroke="black" stroke-width="0.5"/>
<path d="M93.4863 66.7497H92.1122V69.6581H93.9444V70.6276H92.1122V76.9294H93.4863L94.8605 75.9599V67.7192L93.4863 66.7497Z" stroke="black" stroke-width="0.5"/>
<path d="M137.918 59.9632H116.847C119.505 60.8642 120.731 61.3927 122.344 62.3869H132.88C134.475 61.1224 135.584 60.5917 137.918 59.9632Z" stroke="black" stroke-width="0.5"/>
<path d="M44.8133 79.1326H48.4476L47.539 62.4985L45.2676 11.6177C42.9961 7.21454 29.8219 13.0854 28.459 13.5746C27.0962 14.0639 22.9513 13.7458 18.4647 14.0639C14.0938 14.3738 9.59136 15.8049 8.47047 17.9778C6.19905 22.3809 1.65619 43.4182 1.2019 44.8859C0.747619 46.3536 1.2019 62.4985 1.2019 62.4985H2.56476L1.2019 66.4124V77.6649L8.92476 80.1111L18.919 80.1111L20.2819 79.1326M11.6505 25.3163C11.6505 25.8056 11.6505 37.0581 11.6505 37.5473C11.6505 38.0366 14.3762 38.0366 14.3762 37.5473C14.3762 37.0581 14.3762 25.8056 14.3762 25.3163C14.3762 24.8271 13.0133 24.8271 13.0133 24.8271C13.0133 24.8271 11.6505 24.8271 11.6505 25.3163ZM15.739 24.8271H29.3676V37.5473C29.2147 38.0387 29.0483 38.2708 28.459 38.5258L11.1962 41.9505V39.5043C13.8951 40.1598 15.2626 39.7545 15.739 37.5473V24.8271ZM9.37904 22.3809H11.1962L7.10761 42.9289L3.92762 43.9074L3.47333 48.7998H5.29047V57.1169H3.47333V60.0523C3.47333 60.0523 5.29047 60.0523 5.74476 60.0523C6.19904 60.0523 2.56476 66.4124 3.47333 66.4124C4.3819 66.4124 6.65333 66.4124 6.65333 66.4124V69.3478H14.8305C18.0105 55.1599 30.5035 50.901 40.2704 55.1599V15.8925C26.862 15.9103 17.9536 15.519 12.559 17.8495L10.2876 19.4455L9.37904 22.3809ZM7.10762 70.8156L7.10761 73.2618H14.8305L14.8305 70.8156H7.10762ZM3.47334 75.2187L14.3762 75.2187V77.6649L9.37904 77.6649L3.47334 76.1972V75.2187ZM25.279 50.7568H29.3676C29.9415 50.0699 29.9169 49.6385 29.3676 48.7998H25.279C24.6436 49.6574 24.6682 50.0804 25.279 50.7568Z" stroke="black"/>
<path d="M32.0268 55.4495C21.9646 56.4225 14.6466 64.6922 16.0187 77.8266C16.5452 78.1825 16.845 78.1739 17.3908 77.8266C18.0228 65.6079 22.4219 60.3142 32.4842 59.3413C35.2197 59.5246 37.9727 60.3142 39.8022 61.2871C44.8333 64.6923 46.0846 68.749 45.7481 78.3131H48.035C47.7867 74.6161 48.9497 66.1517 45.2907 61.2871C42.6462 57.0149 36.6267 55.0047 32.0268 55.4495Z" stroke="black" stroke-width="0.5"/>
<path d="M36.3539 75.8187C36.3539 78.0043 34.7011 79.7198 32.7295 79.7198C30.7579 79.7198 29.1051 78.0043 29.1051 75.8187C29.1051 73.6331 30.7579 71.9176 32.7295 71.9176C34.7011 71.9176 36.3539 73.6331 36.3539 75.8187Z" stroke="black"/>
<path d="M42.5192 75.8187C42.5192 81.9354 37.9256 86.5 32.7295 86.5C27.5334 86.5 22.9398 81.9354 22.9398 75.8187C22.9398 69.702 27.5334 65.1374 32.7295 65.1374C37.9256 65.1374 42.5192 69.702 42.5192 75.8187Z" fill="black" fill-opacity="0.2" stroke="black" stroke-width="7"/>
<path d="M36.3539 75.8187C36.3539 78.0043 34.7011 79.7198 32.7295 79.7198C30.7579 79.7198 29.1051 78.0043 29.1051 75.8187C29.1051 73.6331 30.7579 71.9176 32.7295 71.9176C34.7011 71.9176 36.3539 73.6331 36.3539 75.8187Z" stroke="black"/>
<path d="M42.5192 75.8187C42.5192 81.9354 37.9256 86.5 32.7295 86.5C27.5334 86.5 22.9398 81.9354 22.9398 75.8187C22.9398 69.702 27.5334 65.1374 32.7295 65.1374C37.9256 65.1374 42.5192 69.702 42.5192 75.8187Z" fill="black" fill-opacity="0.2" stroke="black" stroke-width="7"/>
<path d="M117.009 75.8187C117.009 78.0043 115.356 79.7198 113.384 79.7198C111.413 79.7198 109.76 78.0043 109.76 75.8187C109.76 73.6331 111.413 71.9176 113.384 71.9176C115.356 71.9176 117.009 73.6331 117.009 75.8187Z" stroke="black"/>
<path d="M123.174 75.8187C123.174 81.9354 118.581 86.5 113.384 86.5C108.188 86.5 103.595 81.9354 103.595 75.8187C103.595 69.702 108.188 65.1374 113.384 65.1374C118.581 65.1374 123.174 69.702 123.174 75.8187Z" fill="black" fill-opacity="0.2" stroke="black" stroke-width="7"/>
<path d="M144.505 75.8187C144.505 78.0043 142.852 79.7198 140.88 79.7198C138.909 79.7198 137.256 78.0043 137.256 75.8187C137.256 73.6331 138.909 71.9176 140.88 71.9176C142.852 71.9176 144.505 73.6331 144.505 75.8187Z" stroke="black"/>
<path d="M150.67 75.8187C150.67 81.9354 146.076 86.5 140.88 86.5C135.684 86.5 131.091 81.9354 131.091 75.8187C131.091 69.702 135.684 65.1374 140.88 65.1374C146.076 65.1374 150.67 69.702 150.67 75.8187Z" fill="black" fill-opacity="0.2" stroke="black" stroke-width="7"/>
<path d="M47.6224 62.5309H58.1811V60.5775H55.8857L54.9676 59.1125V15.1619L48.0815 3.4417C48.2877 2.0798 48.6364 1.50229 49.9178 1H54.0494L62.3128 3.93004L66.9036 10.2785H171.269C171.228 5.56195 178 4.41838 178 10.2785C178 16.1385 178 59.1125 178 59.1125C177.567 59.9665 177.132 60.1268 176.164 60.0892H160.096V62.5309H166.982V71.321H166.064L167.9 73.7627H168.818L169.278 72.2977H172.032V80.1111H168.818V77.6694L163.769 74.251H156.423V77.6694H153.21M128.879 77.6694H125.206M100.875 77.6694H97.6617L98.5798 71.321H95.3663V76.2044C94.4574 77.8775 93.7113 78.4065 91.6937 78.1578C90.2228 79.0135 89.4232 78.9014 88.0211 78.1578H80.2168C78.8488 78.9309 78.0484 78.9704 76.5442 78.1578H74.7079L72.4125 76.2044V74.251H71.4943L71.0353 75.7161C69.199 78.1578 67.6813 78.2845 65.0673 75.7161H61.3947C59.0984 78.3409 57.7911 78.2223 55.4267 75.7161V73.7627H54.0494V77.6694H49.4587V79.1344H48.5405" stroke="black"/>
<g filter="url(#filter0_d_7_2212)">
<mask id="path-18-outside-1_7_2212" maskUnits="userSpaceOnUse" x="71" y="26" width="88" height="19" fill="black">
<rect fill="white" x="71" y="26" width="88" height="19"/>
<path d="M82.56 27.2C82.88 27.2 83.12 27.288 83.28 27.464C83.456 27.64 83.576 27.816 83.64 27.992L88.872 43.112C88.936 43.272 88.968 43.392 88.968 43.472C88.968 43.616 88.912 43.744 88.8 43.856C88.704 43.952 88.584 44 88.44 44H85.416C85.096 44 84.864 43.936 84.72 43.808C84.592 43.664 84.512 43.528 84.48 43.4L83.808 41.408H77.424L76.752 43.4C76.72 43.528 76.632 43.664 76.488 43.808C76.36 43.936 76.136 44 75.816 44H72.792C72.648 44 72.52 43.952 72.408 43.856C72.312 43.744 72.264 43.616 72.264 43.472C72.264 43.392 72.296 43.272 72.36 43.112L77.592 27.992C77.656 27.816 77.768 27.64 77.928 27.464C78.104 27.288 78.352 27.2 78.672 27.2H82.56ZM78.672 37.688H82.56L80.616 31.928L78.672 37.688ZM101.555 27.2C101.731 27.2 101.883 27.264 102.011 27.392C102.139 27.52 102.203 27.672 102.203 27.848V30.392C102.203 30.568 102.139 30.72 102.011 30.848C101.883 30.976 101.731 31.04 101.555 31.04H97.3311V43.352C97.3311 43.528 97.2671 43.68 97.1391 43.808C97.0111 43.936 96.8591 44 96.6831 44H93.5391C93.3631 44 93.2111 43.936 93.0831 43.808C92.9551 43.68 92.8911 43.528 92.8911 43.352V31.04H88.6671C88.4911 31.04 88.3391 30.976 88.2111 30.848C88.0831 30.72 88.0191 30.568 88.0191 30.392V27.848C88.0191 27.672 88.0831 27.52 88.2111 27.392C88.3391 27.264 88.4911 27.2 88.6671 27.2H101.555ZM112.712 33.536C113.544 33.536 114.288 33.672 114.944 33.944C115.6 34.216 116.144 34.592 116.576 35.072C117.024 35.552 117.36 36.112 117.584 36.752C117.824 37.376 117.944 38.048 117.944 38.768C117.944 39.488 117.824 40.168 117.584 40.808C117.36 41.432 117.024 41.984 116.576 42.464C116.144 42.944 115.6 43.32 114.944 43.592C114.288 43.864 113.544 44 112.712 44H105.008C104.832 44 104.68 43.936 104.552 43.808C104.424 43.68 104.36 43.528 104.36 43.352V27.848C104.36 27.672 104.424 27.52 104.552 27.392C104.68 27.264 104.832 27.2 105.008 27.2H115.976C116.152 27.2 116.304 27.264 116.432 27.392C116.56 27.52 116.624 27.672 116.624 27.848V30.392C116.624 30.568 116.56 30.72 116.432 30.848C116.304 30.976 116.152 31.04 115.976 31.04H108.8V33.536H112.712ZM113.504 38.768C113.504 38.368 113.384 38.04 113.144 37.784C112.92 37.512 112.496 37.376 111.872 37.376H108.8V40.16H111.872C112.496 40.16 112.92 40.024 113.144 39.752C113.384 39.48 113.504 39.152 113.504 38.768ZM120.609 38.648C120.433 38.648 120.281 38.584 120.153 38.456C120.025 38.328 119.961 38.176 119.961 38V35.576C119.961 35.4 120.025 35.248 120.153 35.12C120.281 34.992 120.433 34.928 120.609 34.928H128.169C128.345 34.928 128.497 34.992 128.625 35.12C128.753 35.248 128.817 35.4 128.817 35.576V38C128.817 38.176 128.753 38.328 128.625 38.456C128.497 38.584 128.345 38.648 128.169 38.648H120.609ZM130.043 32.6C129.931 32.456 129.891 32.296 129.923 32.12C129.955 31.944 130.043 31.8 130.187 31.688L135.347 27.728C135.475 27.632 135.627 27.52 135.803 27.392C135.995 27.264 136.211 27.2 136.451 27.2H139.379C139.555 27.2 139.707 27.264 139.835 27.392C139.963 27.52 140.027 27.672 140.027 27.848V43.352C140.027 43.528 139.963 43.68 139.835 43.808C139.707 43.936 139.555 44 139.379 44H136.235C136.059 44 135.907 43.936 135.779 43.808C135.651 43.68 135.587 43.528 135.587 43.352V32.864L132.731 35.024C132.587 35.136 132.427 35.184 132.251 35.168C132.075 35.136 131.931 35.048 131.819 34.904L130.043 32.6ZM151.209 44C151.033 44 150.881 43.936 150.753 43.808C150.625 43.68 150.561 43.528 150.561 43.352V40.904H143.001C142.825 40.904 142.673 40.84 142.545 40.712C142.417 40.584 142.353 40.432 142.353 40.256V37.712C142.353 37.296 142.457 36.952 142.665 36.68L149.841 27.632C149.985 27.456 150.113 27.344 150.225 27.296C150.353 27.232 150.521 27.2 150.729 27.2H154.353C154.529 27.2 154.681 27.264 154.809 27.392C154.937 27.52 155.001 27.672 155.001 27.848V37.064H157.065C157.241 37.064 157.393 37.128 157.521 37.256C157.649 37.384 157.713 37.536 157.713 37.712V40.256C157.713 40.432 157.649 40.584 157.521 40.712C157.393 40.84 157.241 40.904 157.065 40.904H155.001V43.352C155.001 43.528 154.937 43.68 154.809 43.808C154.681 43.936 154.529 44 154.353 44H151.209ZM150.681 37.064V32.648L147.177 37.064H150.681Z"/>
</mask>
<path d="M82.56 27.2C82.88 27.2 83.12 27.288 83.28 27.464C83.456 27.64 83.576 27.816 83.64 27.992L88.872 43.112C88.936 43.272 88.968 43.392 88.968 43.472C88.968 43.616 88.912 43.744 88.8 43.856C88.704 43.952 88.584 44 88.44 44H85.416C85.096 44 84.864 43.936 84.72 43.808C84.592 43.664 84.512 43.528 84.48 43.4L83.808 41.408H77.424L76.752 43.4C76.72 43.528 76.632 43.664 76.488 43.808C76.36 43.936 76.136 44 75.816 44H72.792C72.648 44 72.52 43.952 72.408 43.856C72.312 43.744 72.264 43.616 72.264 43.472C72.264 43.392 72.296 43.272 72.36 43.112L77.592 27.992C77.656 27.816 77.768 27.64 77.928 27.464C78.104 27.288 78.352 27.2 78.672 27.2H82.56ZM78.672 37.688H82.56L80.616 31.928L78.672 37.688ZM101.555 27.2C101.731 27.2 101.883 27.264 102.011 27.392C102.139 27.52 102.203 27.672 102.203 27.848V30.392C102.203 30.568 102.139 30.72 102.011 30.848C101.883 30.976 101.731 31.04 101.555 31.04H97.3311V43.352C97.3311 43.528 97.2671 43.68 97.1391 43.808C97.0111 43.936 96.8591 44 96.6831 44H93.5391C93.3631 44 93.2111 43.936 93.0831 43.808C92.9551 43.68 92.8911 43.528 92.8911 43.352V31.04H88.6671C88.4911 31.04 88.3391 30.976 88.2111 30.848C88.0831 30.72 88.0191 30.568 88.0191 30.392V27.848C88.0191 27.672 88.0831 27.52 88.2111 27.392C88.3391 27.264 88.4911 27.2 88.6671 27.2H101.555ZM112.712 33.536C113.544 33.536 114.288 33.672 114.944 33.944C115.6 34.216 116.144 34.592 116.576 35.072C117.024 35.552 117.36 36.112 117.584 36.752C117.824 37.376 117.944 38.048 117.944 38.768C117.944 39.488 117.824 40.168 117.584 40.808C117.36 41.432 117.024 41.984 116.576 42.464C116.144 42.944 115.6 43.32 114.944 43.592C114.288 43.864 113.544 44 112.712 44H105.008C104.832 44 104.68 43.936 104.552 43.808C104.424 43.68 104.36 43.528 104.36 43.352V27.848C104.36 27.672 104.424 27.52 104.552 27.392C104.68 27.264 104.832 27.2 105.008 27.2H115.976C116.152 27.2 116.304 27.264 116.432 27.392C116.56 27.52 116.624 27.672 116.624 27.848V30.392C116.624 30.568 116.56 30.72 116.432 30.848C116.304 30.976 116.152 31.04 115.976 31.04H108.8V33.536H112.712ZM113.504 38.768C113.504 38.368 113.384 38.04 113.144 37.784C112.92 37.512 112.496 37.376 111.872 37.376H108.8V40.16H111.872C112.496 40.16 112.92 40.024 113.144 39.752C113.384 39.48 113.504 39.152 113.504 38.768ZM120.609 38.648C120.433 38.648 120.281 38.584 120.153 38.456C120.025 38.328 119.961 38.176 119.961 38V35.576C119.961 35.4 120.025 35.248 120.153 35.12C120.281 34.992 120.433 34.928 120.609 34.928H128.169C128.345 34.928 128.497 34.992 128.625 35.12C128.753 35.248 128.817 35.4 128.817 35.576V38C128.817 38.176 128.753 38.328 128.625 38.456C128.497 38.584 128.345 38.648 128.169 38.648H120.609ZM130.043 32.6C129.931 32.456 129.891 32.296 129.923 32.12C129.955 31.944 130.043 31.8 130.187 31.688L135.347 27.728C135.475 27.632 135.627 27.52 135.803 27.392C135.995 27.264 136.211 27.2 136.451 27.2H139.379C139.555 27.2 139.707 27.264 139.835 27.392C139.963 27.52 140.027 27.672 140.027 27.848V43.352C140.027 43.528 139.963 43.68 139.835 43.808C139.707 43.936 139.555 44 139.379 44H136.235C136.059 44 135.907 43.936 135.779 43.808C135.651 43.68 135.587 43.528 135.587 43.352V32.864L132.731 35.024C132.587 35.136 132.427 35.184 132.251 35.168C132.075 35.136 131.931 35.048 131.819 34.904L130.043 32.6ZM151.209 44C151.033 44 150.881 43.936 150.753 43.808C150.625 43.68 150.561 43.528 150.561 43.352V40.904H143.001C142.825 40.904 142.673 40.84 142.545 40.712C142.417 40.584 142.353 40.432 142.353 40.256V37.712C142.353 37.296 142.457 36.952 142.665 36.68L149.841 27.632C149.985 27.456 150.113 27.344 150.225 27.296C150.353 27.232 150.521 27.2 150.729 27.2H154.353C154.529 27.2 154.681 27.264 154.809 27.392C154.937 27.52 155.001 27.672 155.001 27.848V37.064H157.065C157.241 37.064 157.393 37.128 157.521 37.256C157.649 37.384 157.713 37.536 157.713 37.712V40.256C157.713 40.432 157.649 40.584 157.521 40.712C157.393 40.84 157.241 40.904 157.065 40.904H155.001V43.352C155.001 43.528 154.937 43.68 154.809 43.808C154.681 43.936 154.529 44 154.353 44H151.209ZM150.681 37.064V32.648L147.177 37.064H150.681Z" fill="white"/>
<path d="M83.28 27.464L82.5401 28.1367L82.5561 28.1543L82.5729 28.1711L83.28 27.464ZM83.64 27.992L84.585 27.665L84.5825 27.6576L84.5798 27.6503L83.64 27.992ZM88.872 43.112L87.927 43.439L87.9347 43.4614L87.9435 43.4834L88.872 43.112ZM88.8 43.856L89.5071 44.5631L89.5071 44.5631L88.8 43.856ZM84.72 43.808L83.9726 44.4724L84.0117 44.5163L84.0556 44.5554L84.72 43.808ZM84.48 43.4L85.4501 43.1575L85.4404 43.1185L85.4275 43.0803L84.48 43.4ZM83.808 41.408L84.7555 41.0883L84.526 40.408H83.808V41.408ZM77.424 41.408V40.408H76.706L76.4765 41.0884L77.424 41.408ZM76.752 43.4L75.8045 43.0803L75.7916 43.1185L75.7819 43.1575L76.752 43.4ZM76.488 43.808L75.7809 43.1009H75.7809L76.488 43.808ZM72.408 43.856L71.6487 44.5068L71.6988 44.5652L71.7572 44.6153L72.408 43.856ZM72.36 43.112L73.2885 43.4834L73.2973 43.4614L73.305 43.439L72.36 43.112ZM77.592 27.992L76.6522 27.6503L76.6495 27.6576L76.647 27.665L77.592 27.992ZM77.928 27.464L77.2209 26.7569L77.2041 26.7737L77.1881 26.7913L77.928 27.464ZM78.672 37.688L77.7245 37.3682L77.2791 38.688H78.672V37.688ZM82.56 37.688V38.688H83.9529L83.5075 37.3682L82.56 37.688ZM80.616 31.928L81.5635 31.6082L80.616 28.8008L79.6685 31.6082L80.616 31.928ZM82.56 28.2C82.6309 28.2 82.6498 28.21 82.6357 28.2049C82.6279 28.202 82.6129 28.1955 82.5942 28.1831C82.5751 28.1706 82.5565 28.1548 82.5401 28.1367L84.0199 26.7913C83.6114 26.3419 83.06 26.2 82.56 26.2V28.2ZM82.5729 28.1711C82.624 28.2222 82.6562 28.2626 82.6758 28.2913C82.6951 28.3197 82.7003 28.3339 82.7002 28.3337L84.5798 27.6503C84.4523 27.2996 84.234 27.0038 83.9871 26.7569L82.5729 28.1711ZM82.695 28.319L87.927 43.439L89.817 42.785L84.585 27.665L82.695 28.319ZM87.9435 43.4834C87.9543 43.5103 87.9623 43.532 87.9681 43.5488C87.9739 43.5659 87.9768 43.5759 87.9778 43.5797C87.9789 43.5839 87.977 43.5775 87.9746 43.5625C87.9733 43.5547 87.9717 43.5432 87.9704 43.5287C87.9691 43.5142 87.968 43.495 87.968 43.472H89.968C89.968 43.1868 89.8698 42.9139 89.8005 42.7406L87.9435 43.4834ZM87.968 43.472C87.968 43.4104 87.9808 43.3415 88.0098 43.2752C88.038 43.2107 88.0724 43.1694 88.0929 43.1489L89.5071 44.5631C89.7861 44.2842 89.968 43.909 89.968 43.472H87.968ZM88.0929 43.1489C88.1357 43.1061 88.1946 43.0643 88.2666 43.0355C88.3375 43.0072 88.3993 43 88.44 43V45C88.8314 45 89.2113 44.8589 89.5071 44.5631L88.0929 43.1489ZM88.44 43H85.416V45H88.44V43ZM85.416 43C85.3689 43 85.3332 42.9976 85.3077 42.9947C85.282 42.9917 85.2696 42.9885 85.2679 42.988C85.2637 42.9868 85.317 43.0007 85.3844 43.0606L84.0556 44.5554C84.4705 44.9242 85.0018 45 85.416 45V43ZM85.4674 43.1436C85.4529 43.1273 85.4426 43.1144 85.4357 43.1052C85.4289 43.0959 85.426 43.0912 85.4259 43.091C85.4258 43.0908 85.429 43.0961 85.4336 43.107C85.4382 43.1178 85.4445 43.1348 85.4501 43.1575L83.5099 43.6425C83.5948 43.9825 83.7832 44.2593 83.9726 44.4724L85.4674 43.1436ZM85.4275 43.0803L84.7555 41.0883L82.8605 41.7277L83.5325 43.7197L85.4275 43.0803ZM83.808 40.408H77.424V42.408H83.808V40.408ZM76.4765 41.0884L75.8045 43.0803L77.6995 43.7197L78.3715 41.7276L76.4765 41.0884ZM75.7819 43.1575C75.7978 43.0936 75.8198 43.0589 75.8224 43.0547C75.825 43.0508 75.8152 43.0666 75.7809 43.1009L77.1951 44.5151C77.4033 44.3069 77.6285 44.0172 77.7221 43.6425L75.7819 43.1575ZM75.7809 43.1009C75.8667 43.0151 75.9436 42.9921 75.9493 42.9905C75.953 42.9894 75.9448 42.9921 75.9212 42.9949C75.8977 42.9976 75.8633 43 75.816 43V45C76.2137 45 76.7792 44.931 77.1951 44.5151L75.7809 43.1009ZM75.816 43H72.792V45H75.816V43ZM72.792 43C72.8334 43 72.8849 43.0074 72.9391 43.0277C72.993 43.0479 73.0331 43.0747 73.0588 43.0967L71.7572 44.6153C72.0456 44.8625 72.403 45 72.792 45V43ZM73.1673 43.2052C73.1893 43.2309 73.2161 43.271 73.2363 43.3249C73.2566 43.3791 73.264 43.4306 73.264 43.472H71.264C71.264 43.861 71.4015 44.2184 71.6487 44.5068L73.1673 43.2052ZM73.264 43.472C73.264 43.495 73.2629 43.5142 73.2616 43.5287C73.2603 43.5432 73.2587 43.5547 73.2574 43.5625C73.255 43.5775 73.2531 43.5839 73.2542 43.5797C73.2552 43.5759 73.2581 43.5659 73.2639 43.5488C73.2697 43.532 73.2777 43.5103 73.2885 43.4834L71.4315 42.7406C71.3622 42.9139 71.264 43.1868 71.264 43.472H73.264ZM73.305 43.439L78.537 28.319L76.647 27.665L71.415 42.785L73.305 43.439ZM78.5318 28.3337C78.5411 28.3082 78.5728 28.2414 78.6679 28.1367L77.1881 26.7913C76.9632 27.0386 76.7709 27.3238 76.6522 27.6503L78.5318 28.3337ZM78.6351 28.1711C78.625 28.1812 78.6136 28.1902 78.6021 28.1974C78.5907 28.2045 78.5827 28.2076 78.5804 28.2084C78.5767 28.2098 78.6021 28.2 78.672 28.2V26.2C78.1661 26.2 77.6339 26.3439 77.2209 26.7569L78.6351 28.1711ZM78.672 28.2H82.56V26.2H78.672V28.2ZM78.672 38.688H82.56V36.688H78.672V38.688ZM83.5075 37.3682L81.5635 31.6082L79.6685 32.2478L81.6125 38.0078L83.5075 37.3682ZM79.6685 31.6082L77.7245 37.3682L79.6195 38.0078L81.5635 32.2478L79.6685 31.6082ZM102.011 27.392L102.718 26.6849L102.718 26.6849L102.011 27.392ZM102.011 30.848L102.718 31.5551L102.718 31.5551L102.011 30.848ZM97.3311 31.04V30.04H96.3311V31.04H97.3311ZM97.1391 43.808L96.432 43.1009H96.432L97.1391 43.808ZM92.8911 31.04H93.8911V30.04H92.8911V31.04ZM88.2111 30.848L87.504 31.5551L88.2111 30.848ZM88.2111 27.392L87.504 26.6849L88.2111 27.392ZM101.555 28.2C101.519 28.2 101.468 28.1928 101.413 28.1696C101.359 28.1467 101.322 28.1176 101.304 28.0991L102.718 26.6849C102.409 26.3753 102.005 26.2 101.555 26.2V28.2ZM101.304 28.0991C101.285 28.0806 101.256 28.0444 101.233 27.9901C101.21 27.9351 101.203 27.8842 101.203 27.848H103.203C103.203 27.3984 103.028 26.9944 102.718 26.6849L101.304 28.0991ZM101.203 27.848V30.392H103.203V27.848H101.203ZM101.203 30.392C101.203 30.3558 101.21 30.3049 101.233 30.2499C101.256 30.1956 101.285 30.1594 101.304 30.1409L102.718 31.5551C103.028 31.2456 103.203 30.8416 103.203 30.392H101.203ZM101.304 30.1409C101.322 30.1224 101.359 30.0933 101.413 30.0704C101.468 30.0472 101.519 30.04 101.555 30.04V32.04C102.005 32.04 102.409 31.8647 102.718 31.5551L101.304 30.1409ZM101.555 30.04H97.3311V32.04H101.555V30.04ZM96.3311 31.04V43.352H98.3311V31.04H96.3311ZM96.3311 43.352C96.3311 43.3158 96.3383 43.2649 96.3614 43.2099C96.3843 43.1556 96.4134 43.1194 96.432 43.1009L97.8462 44.5151C98.1557 44.2056 98.3311 43.8016 98.3311 43.352H96.3311ZM96.432 43.1009C96.4505 43.0824 96.4866 43.0533 96.541 43.0304C96.5959 43.0072 96.6468 43 96.6831 43V45C97.1326 45 97.5366 44.8247 97.8462 44.5151L96.432 43.1009ZM96.6831 43H93.5391V45H96.6831V43ZM93.5391 43C93.5753 43 93.6262 43.0072 93.6811 43.0304C93.7355 43.0533 93.7717 43.0824 93.7902 43.1009L92.376 44.5151C92.6855 44.8247 93.0895 45 93.5391 45V43ZM93.7902 43.1009C93.8087 43.1194 93.8378 43.1556 93.8607 43.2099C93.8838 43.2649 93.8911 43.3158 93.8911 43.352H91.8911C91.8911 43.8016 92.0664 44.2056 92.376 44.5151L93.7902 43.1009ZM93.8911 43.352V31.04H91.8911V43.352H93.8911ZM92.8911 30.04H88.6671V32.04H92.8911V30.04ZM88.6671 30.04C88.7033 30.04 88.7542 30.0472 88.8091 30.0704C88.8635 30.0933 88.8997 30.1224 88.9182 30.1409L87.504 31.5551C87.8135 31.8647 88.2175 32.04 88.6671 32.04V30.04ZM88.9182 30.1409C88.9367 30.1594 88.9658 30.1956 88.9887 30.2499C89.0118 30.3049 89.0191 30.3558 89.0191 30.392H87.0191C87.0191 30.8416 87.1944 31.2456 87.504 31.5551L88.9182 30.1409ZM89.0191 30.392V27.848H87.0191V30.392H89.0191ZM89.0191 27.848C89.0191 27.8842 89.0118 27.9351 88.9887 27.9901C88.9658 28.0444 88.9367 28.0806 88.9182 28.0991L87.504 26.6849C87.1944 26.9944 87.0191 27.3984 87.0191 27.848H89.0191ZM88.9182 28.0991C88.8997 28.1176 88.8635 28.1467 88.8091 28.1696C88.7542 28.1928 88.7033 28.2 88.6671 28.2V26.2C88.2175 26.2 87.8135 26.3753 87.504 26.6849L88.9182 28.0991ZM88.6671 28.2H101.555V26.2H88.6671V28.2ZM114.944 33.944L115.327 33.0203L114.944 33.944ZM116.576 35.072L115.832 35.741L115.838 35.7477L115.845 35.7543L116.576 35.072ZM117.584 36.752L116.64 37.0823L116.645 37.0967L116.65 37.111L117.584 36.752ZM117.584 40.808L116.647 40.4568L116.642 40.4701L117.584 40.808ZM116.576 42.464L115.845 41.7817L115.838 41.7883L115.832 41.795L116.576 42.464ZM108.8 31.04V30.04H107.8V31.04H108.8ZM108.8 33.536H107.8V34.536H108.8V33.536ZM113.144 37.784L112.372 38.4197L112.392 38.4445L112.414 38.4679L113.144 37.784ZM108.8 37.376V36.376H107.8V37.376H108.8ZM108.8 40.16H107.8V41.16H108.8V40.16ZM113.144 39.752L112.394 39.0904L112.383 39.1031L112.372 39.1163L113.144 39.752ZM112.712 34.536C113.434 34.536 114.045 34.654 114.561 34.8677L115.327 33.0203C114.53 32.69 113.653 32.536 112.712 32.536V34.536ZM114.561 34.8677C115.093 35.0885 115.51 35.3823 115.832 35.741L117.319 34.403C116.778 33.8017 116.106 33.3435 115.327 33.0203L114.561 34.8677ZM115.845 35.7543C116.195 36.1297 116.46 36.5688 116.64 37.0823L118.528 36.4216C118.259 35.6552 117.852 34.9743 117.307 34.3897L115.845 35.7543ZM116.65 37.111C116.843 37.6119 116.944 38.1612 116.944 38.768H118.944C118.944 37.9348 118.804 37.1401 118.517 36.393L116.65 37.111ZM116.944 38.768C116.944 39.3746 116.843 39.9351 116.647 40.4569L118.52 41.1591C118.804 40.4009 118.944 39.6014 118.944 38.768H116.944ZM116.642 40.4701C116.464 40.9675 116.199 41.402 115.845 41.7817L117.307 43.1463C117.848 42.566 118.255 41.8965 118.525 41.1459L116.642 40.4701ZM115.832 41.795C115.51 42.1537 115.093 42.4475 114.561 42.6683L115.327 44.5157C116.106 44.1925 116.778 43.7343 117.319 43.133L115.832 41.795ZM114.561 42.6683C114.045 42.882 113.434 43 112.712 43V45C113.653 45 114.53 44.846 115.327 44.5157L114.561 42.6683ZM112.712 43H105.008V45H112.712V43ZM105.008 43C105.044 43 105.095 43.0072 105.15 43.0304C105.204 43.0533 105.24 43.0824 105.259 43.1009L103.845 44.5151C104.154 44.8247 104.558 45 105.008 45V43ZM105.259 43.1009C105.277 43.1194 105.306 43.1556 105.329 43.2099C105.352 43.2649 105.36 43.3158 105.36 43.352H103.36C103.36 43.8016 103.535 44.2056 103.845 44.5151L105.259 43.1009ZM105.36 43.352V27.848H103.36V43.352H105.36ZM105.36 27.848C105.36 27.8842 105.352 27.9351 105.329 27.9901C105.306 28.0444 105.277 28.0806 105.259 28.0991L103.845 26.6849C103.535 26.9944 103.36 27.3984 103.36 27.848H105.36ZM105.259 28.0991C105.24 28.1176 105.204 28.1467 105.15 28.1696C105.095 28.1928 105.044 28.2 105.008 28.2V26.2C104.558 26.2 104.154 26.3753 103.845 26.6849L105.259 28.0991ZM105.008 28.2H115.976V26.2H105.008V28.2ZM115.976 28.2C115.939 28.2 115.889 28.1928 115.834 28.1696C115.779 28.1467 115.743 28.1176 115.725 28.0991L117.139 26.6849C116.829 26.3753 116.425 26.2 115.976 26.2V28.2ZM115.725 28.0991C115.706 28.0806 115.677 28.0444 115.654 27.9901C115.631 27.9351 115.624 27.8842 115.624 27.848H117.624C117.624 27.3984 117.448 26.9944 117.139 26.6849L115.725 28.0991ZM115.624 27.848V30.392H117.624V27.848H115.624ZM115.624 30.392C115.624 30.3558 115.631 30.3049 115.654 30.2499C115.677 30.1956 115.706 30.1594 115.725 30.1409L117.139 31.5551C117.448 31.2456 117.624 30.8416 117.624 30.392H115.624ZM115.725 30.1409C115.743 30.1224 115.779 30.0933 115.834 30.0704C115.889 30.0472 115.939 30.04 115.976 30.04V32.04C116.425 32.04 116.829 31.8647 117.139 31.5551L115.725 30.1409ZM115.976 30.04H108.8V32.04H115.976V30.04ZM107.8 31.04V33.536H109.8V31.04H107.8ZM108.8 34.536H112.712V32.536H108.8V34.536ZM114.504 38.768C114.504 38.1522 114.312 37.5676 113.873 37.1001L112.414 38.4679C112.456 38.5124 112.504 38.5838 112.504 38.768H114.504ZM113.916 37.1483C113.397 36.518 112.576 36.376 111.872 36.376V38.376C112.118 38.376 112.27 38.4038 112.352 38.4302C112.43 38.455 112.41 38.4663 112.372 38.4197L113.916 37.1483ZM111.872 36.376H108.8V38.376H111.872V36.376ZM107.8 37.376V40.16H109.8V37.376H107.8ZM108.8 41.16H111.872V39.16H108.8V41.16ZM111.872 41.16C112.576 41.16 113.397 41.018 113.916 40.3877L112.372 39.1163C112.41 39.0697 112.43 39.081 112.352 39.1058C112.27 39.1322 112.118 39.16 111.872 39.16V41.16ZM113.894 40.4136C114.305 39.9476 114.504 39.3801 114.504 38.768H112.504C112.504 38.9239 112.463 39.0124 112.394 39.0904L113.894 40.4136ZM120.153 38.456L119.446 39.1631L120.153 38.456ZM120.153 35.12L120.86 35.8271L120.86 35.8271L120.153 35.12ZM128.625 35.12L127.918 35.8271V35.8271L128.625 35.12ZM128.625 38.456L127.918 37.7489V37.7489L128.625 38.456ZM120.609 37.648C120.645 37.648 120.696 37.6552 120.751 37.6784C120.805 37.7013 120.841 37.7304 120.86 37.7489L119.446 39.1631C119.755 39.4727 120.159 39.648 120.609 39.648V37.648ZM120.86 37.7489C120.878 37.7674 120.907 37.8036 120.93 37.8579C120.953 37.9129 120.961 37.9638 120.961 38H118.961C118.961 38.4496 119.136 38.8536 119.446 39.1631L120.86 37.7489ZM120.961 38V35.576H118.961V38H120.961ZM120.961 35.576C120.961 35.6122 120.953 35.6631 120.93 35.7181C120.907 35.7724 120.878 35.8086 120.86 35.8271L119.446 34.4129C119.136 34.7224 118.961 35.1264 118.961 35.576H120.961ZM120.86 35.8271C120.841 35.8456 120.805 35.8747 120.751 35.8976C120.696 35.9208 120.645 35.928 120.609 35.928V33.928C120.159 33.928 119.755 34.1033 119.446 34.4129L120.86 35.8271ZM120.609 35.928H128.169V33.928H120.609V35.928ZM128.169 35.928C128.132 35.928 128.081 35.9208 128.027 35.8976C127.972 35.8747 127.936 35.8456 127.918 35.8271L129.332 34.4129C129.022 34.1033 128.618 33.928 128.169 33.928V35.928ZM127.918 35.8271C127.899 35.8086 127.87 35.7724 127.847 35.7181C127.824 35.6631 127.817 35.6122 127.817 35.576H129.817C129.817 35.1264 129.641 34.7224 129.332 34.4129L127.918 35.8271ZM127.817 35.576V38H129.817V35.576H127.817ZM127.817 38C127.817 37.9638 127.824 37.9129 127.847 37.8579C127.87 37.8036 127.899 37.7674 127.918 37.7489L129.332 39.1631C129.641 38.8536 129.817 38.4496 129.817 38H127.817ZM127.918 37.7489C127.936 37.7304 127.972 37.7013 128.027 37.6784C128.081 37.6552 128.132 37.648 128.169 37.648V39.648C128.618 39.648 129.022 39.4727 129.332 39.1631L127.918 37.7489ZM128.169 37.648H120.609V39.648H128.169V37.648ZM130.043 32.6L130.835 31.9895L130.832 31.9861L130.043 32.6ZM130.187 31.688L129.578 30.8947L129.573 30.8986L130.187 31.688ZM135.347 27.728L134.747 26.9279L134.738 26.9347L135.347 27.728ZM135.803 27.392L135.248 26.5599L135.231 26.5713L135.215 26.5833L135.803 27.392ZM135.779 43.808L136.486 43.1009L135.779 43.808ZM135.587 32.864H136.587V30.8539L134.984 32.0664L135.587 32.864ZM132.731 35.024L132.128 34.2263L132.117 34.2346L132.731 35.024ZM132.251 35.168L132.072 36.1519L132.116 36.1599L132.161 36.1639L132.251 35.168ZM131.819 34.904L131.027 35.5145L131.03 35.5179L131.819 34.904ZM130.832 31.9861C130.853 32.0122 130.882 32.0607 130.899 32.1295C130.917 32.1987 130.914 32.259 130.907 32.2989L128.939 31.9411C128.855 32.4033 128.971 32.8504 129.254 33.2139L130.832 31.9861ZM130.907 32.2989C130.902 32.3248 130.89 32.3621 130.866 32.4015C130.842 32.4405 130.817 32.4653 130.801 32.4774L129.573 30.8986C129.239 31.1584 129.016 31.5178 128.939 31.9411L130.907 32.2989ZM130.796 32.4813L135.956 28.5213L134.738 26.9347L129.578 30.8947L130.796 32.4813ZM135.947 28.528C136.07 28.4358 136.218 28.3268 136.391 28.2007L135.215 26.5833C135.036 26.7132 134.88 26.8282 134.747 26.928L135.947 28.528ZM136.358 28.224C136.379 28.2101 136.4 28.2 136.451 28.2V26.2C136.022 26.2 135.611 26.3179 135.248 26.5599L136.358 28.224ZM136.451 28.2H139.379V26.2H136.451V28.2ZM139.379 28.2C139.343 28.2 139.292 28.1928 139.237 28.1696C139.183 28.1467 139.146 28.1176 139.128 28.0991L140.542 26.6849C140.233 26.3753 139.829 26.2 139.379 26.2V28.2ZM139.128 28.0991C139.109 28.0806 139.08 28.0444 139.057 27.9901C139.034 27.9351 139.027 27.8842 139.027 27.848H141.027C141.027 27.3984 140.852 26.9944 140.542 26.6849L139.128 28.0991ZM139.027 27.848V43.352H141.027V27.848H139.027ZM139.027 43.352C139.027 43.3158 139.034 43.2649 139.057 43.2099C139.08 43.1556 139.109 43.1194 139.128 43.1009L140.542 44.5151C140.852 44.2056 141.027 43.8016 141.027 43.352H139.027ZM139.128 43.1009C139.146 43.0824 139.183 43.0533 139.237 43.0304C139.292 43.0072 139.343 43 139.379 43V45C139.829 45 140.233 44.8247 140.542 44.5151L139.128 43.1009ZM139.379 43H136.235V45H139.379V43ZM136.235 43C136.271 43 136.322 43.0072 136.377 43.0304C136.431 43.0533 136.468 43.0824 136.486 43.1009L135.072 44.5151C135.382 44.8247 135.785 45 136.235 45V43ZM136.486 43.1009C136.505 43.1194 136.534 43.1556 136.557 43.2099C136.58 43.2649 136.587 43.3158 136.587 43.352H134.587C134.587 43.8016 134.762 44.2056 135.072 44.5151L136.486 43.1009ZM136.587 43.352V32.864H134.587V43.352H136.587ZM134.984 32.0664L132.128 34.2264L133.334 35.8216L136.19 33.6616L134.984 32.0664ZM132.117 34.2346C132.134 34.2218 132.167 34.2008 132.216 34.1862C132.265 34.1714 132.31 34.1692 132.342 34.1721L132.161 36.1639C132.598 36.2037 133.008 36.0755 133.345 35.8134L132.117 34.2346ZM132.43 34.1841C132.456 34.1888 132.493 34.2007 132.533 34.2247C132.572 34.2486 132.596 34.2745 132.608 34.2901L131.03 35.5179C131.289 35.8519 131.649 36.0749 132.072 36.1519L132.43 34.1841ZM132.611 34.2935L130.835 31.9895L129.251 33.2105L131.027 35.5145L132.611 34.2935ZM150.753 43.808L150.046 44.5151L150.046 44.5151L150.753 43.808ZM150.561 40.904H151.561V39.904H150.561V40.904ZM142.545 40.712L141.838 41.4191V41.4191L142.545 40.712ZM142.665 36.68L141.882 36.0586L141.876 36.0655L141.871 36.0725L142.665 36.68ZM149.841 27.632L149.067 26.9988L149.063 27.0046L149.058 27.0106L149.841 27.632ZM150.225 27.296L150.619 28.2151L150.646 28.2036L150.673 28.1904L150.225 27.296ZM154.809 27.392L154.102 28.0991L154.102 28.0991L154.809 27.392ZM155.001 37.064H154.001V38.064H155.001V37.064ZM157.521 37.256L158.228 36.5489V36.5489L157.521 37.256ZM157.521 40.712L158.228 41.4191V41.4191L157.521 40.712ZM155.001 40.904V39.904H154.001V40.904H155.001ZM154.809 43.808L154.102 43.1009L154.102 43.1009L154.809 43.808ZM150.681 37.064V38.064H151.681V37.064H150.681ZM150.681 32.648H151.681V29.7789L149.898 32.0264L150.681 32.648ZM147.177 37.064L146.394 36.4424L145.107 38.064H147.177V37.064ZM151.209 43C151.246 43 151.297 43.0072 151.351 43.0304C151.406 43.0533 151.442 43.0824 151.46 43.1009L150.046 44.5151C150.356 44.8247 150.76 45 151.209 45V43ZM151.46 43.1009C151.479 43.1194 151.508 43.1556 151.531 43.2099C151.554 43.2649 151.561 43.3158 151.561 43.352H149.561C149.561 43.8016 149.737 44.2056 150.046 44.5151L151.46 43.1009ZM151.561 43.352V40.904H149.561V43.352H151.561ZM150.561 39.904H143.001V41.904H150.561V39.904ZM143.001 39.904C143.038 39.904 143.089 39.9112 143.143 39.9344C143.198 39.9573 143.234 39.9864 143.252 40.0049L141.838 41.4191C142.148 41.7287 142.552 41.904 143.001 41.904V39.904ZM143.252 40.0049C143.271 40.0234 143.3 40.0596 143.323 40.1139C143.346 40.1689 143.353 40.2198 143.353 40.256H141.353C141.353 40.7056 141.529 41.1096 141.838 41.4191L143.252 40.0049ZM143.353 40.256V37.712H141.353V40.256H143.353ZM143.353 37.712C143.353 37.4671 143.412 37.3501 143.46 37.2874L141.871 36.0725C141.503 36.5539 141.353 37.1249 141.353 37.712H143.353ZM143.449 37.3014L150.625 28.2534L149.058 27.0106L141.882 36.0586L143.449 37.3014ZM150.615 28.2652C150.638 28.237 150.658 28.2151 150.673 28.1986C150.689 28.182 150.699 28.1726 150.704 28.1686C150.709 28.1644 150.705 28.168 150.693 28.176C150.681 28.184 150.657 28.1992 150.619 28.2151L149.831 26.3769C149.493 26.5221 149.239 26.7885 149.067 26.9988L150.615 28.2652ZM150.673 28.1904C150.64 28.2066 150.624 28.2084 150.634 28.2063C150.645 28.2043 150.675 28.2 150.729 28.2V26.2C150.431 26.2 150.093 26.2439 149.778 26.4016L150.673 28.1904ZM150.729 28.2H154.353V26.2H150.729V28.2ZM154.353 28.2C154.317 28.2 154.266 28.1928 154.211 28.1696C154.157 28.1467 154.121 28.1176 154.102 28.0991L155.516 26.6849C155.207 26.3753 154.803 26.2 154.353 26.2V28.2ZM154.102 28.0991C154.084 28.0806 154.055 28.0444 154.032 27.9901C154.009 27.9351 154.001 27.8842 154.001 27.848H156.001C156.001 27.3984 155.826 26.9944 155.516 26.6849L154.102 28.0991ZM154.001 27.848V37.064H156.001V27.848H154.001ZM155.001 38.064H157.065V36.064H155.001V38.064ZM157.065 38.064C157.029 38.064 156.978 38.0568 156.923 38.0336C156.869 38.0107 156.833 37.9816 156.814 37.9631L158.228 36.5489C157.919 36.2393 157.515 36.064 157.065 36.064V38.064ZM156.814 37.9631C156.796 37.9446 156.767 37.9084 156.744 37.8541C156.721 37.7991 156.713 37.7482 156.713 37.712H158.713C158.713 37.2624 158.538 36.8584 158.228 36.5489L156.814 37.9631ZM156.713 37.712V40.256H158.713V37.712H156.713ZM156.713 40.256C156.713 40.2198 156.721 40.1689 156.744 40.1139C156.767 40.0596 156.796 40.0234 156.814 40.0049L158.228 41.4191C158.538 41.1096 158.713 40.7056 158.713 40.256H156.713ZM156.814 40.0049C156.833 39.9864 156.869 39.9573 156.923 39.9344C156.978 39.9112 157.029 39.904 157.065 39.904V41.904C157.515 41.904 157.919 41.7287 158.228 41.4191L156.814 40.0049ZM157.065 39.904H155.001V41.904H157.065V39.904ZM154.001 40.904V43.352H156.001V40.904H154.001ZM154.001 43.352C154.001 43.3158 154.009 43.2649 154.032 43.2099C154.055 43.1556 154.084 43.1194 154.102 43.1009L155.516 44.5151C155.826 44.2056 156.001 43.8016 156.001 43.352H154.001ZM154.102 43.1009C154.121 43.0824 154.157 43.0533 154.211 43.0304C154.266 43.0072 154.317 43 154.353 43V45C154.803 45 155.207 44.8247 155.516 44.5151L154.102 43.1009ZM154.353 43H151.209V45H154.353V43ZM151.681 37.064V32.648H149.681V37.064H151.681ZM149.898 32.0264L146.394 36.4424L147.961 37.6856L151.465 33.2696L149.898 32.0264ZM147.177 38.064H150.681V36.064H147.177V38.064Z" fill="black" mask="url(#path-18-outside-1_7_2212)"/>
</g>
<defs>
<filter id="filter0_d_7_2212" x="67.264" y="26.2" width="95.4494" height="26.8" filterUnits="userSpaceOnUse" color-interpolation-filters="sRGB">
<feFlood flood-opacity="0" result="BackgroundImageFix"/>
<feColorMatrix in="SourceAlpha" type="matrix" values="0 0 0 0 0 0 0 0 0 0 0 0 0 0 0 0 0 0 127 0" result="hardAlpha"/>
<feOffset dy="4"/>
<feGaussianBlur stdDeviation="2"/>
<feComposite in2="hardAlpha" operator="out"/>
<feColorMatrix type="matrix" values="0 0 0 0 0 0 0 0 0 0 0 0 0 0 0 0 0 0 0.25 0"/>
<feBlend mode="normal" in2="BackgroundImageFix" result="effect1_dropShadow_7_2212"/>
<feBlend mode="normal" in="SourceGraphic" in2="effect1_dropShadow_7_2212" result="shape"/>
</filter>
</defs>
</svg>
