<svg width="28" height="34" viewBox="0 0 28 34" fill="none" xmlns="http://www.w3.org/2000/svg">
<path d="M2.05393 5.83057C2.25535 4.81336 6.15897 2.01389 7.75379 1.6741C9.34861 1.33431 13.9997 9.51568 12.3371 10.3891C10.6746 11.2625 10.4353 11.2321 8.70502 12.6392C6.97473 14.0462 8.05438 14.6361 11.1435 18.8237C14.2325 23.0113 15.1671 25.6901 16.9651 23.7494C18.7631 21.8088 19.2624 21.028 20.3482 20.6236C21.434 20.2192 26.3608 25.9132 26.0898 28.0477C25.8189 30.1822 23.0658 31.8128 22.489 32.2819C21.9123 32.7509 20.8944 32.6217 19.8764 32.4925L19.8762 32.4924C18.8581 32.3632 14.48 30.1809 12.1381 28.257C9.79617 26.333 6.7748 21.6118 5.89222 20.4154C5.00964 19.2189 2.63278 13.4951 2.32694 11.8296C2.02109 10.1641 1.8525 6.84778 2.05393 5.83057Z" stroke="#C0C0C0" stroke-width="2"/>
</svg>
