<svg width="77" height="69" viewBox="0 0 77 69" fill="none" xmlns="http://www.w3.org/2000/svg">
<rect x="1.64893" y="1.00049" width="73.7143" height="67" rx="23" fill="white" stroke="black" stroke-width="2"/>
<path d="M18.5024 23.8369C20.0027 23.8369 22.2888 23.8369 23.5748 23.8369C24.2177 23.8369 24.7178 24.2112 24.9322 24.7102C25.5751 26.3321 27.004 29.8878 28.6471 32.3207C30.8618 35.5021 32.2906 36.6873 33.2194 36.5626C34.1481 36.3754 33.8623 34.2545 33.8623 32.5702C33.8623 30.8859 34.0767 28.0164 33.1479 26.7064L31.7191 24.8974C31.3619 24.4607 31.7191 23.8993 32.2906 23.8993H40.435C41.2208 23.8993 41.8638 24.4607 41.8638 25.1469V34.1921C41.8638 34.1921 42.221 35.814 44.2214 34.1297C46.2217 32.4455 48.365 29.3264 50.151 26.145L50.8654 24.6479C51.0797 24.2112 51.5798 23.8993 52.1514 23.8993H57.438C58.4382 23.8993 59.1526 24.7726 58.7954 25.5836L58.2239 26.8936C58.2239 26.8936 56.295 30.2621 54.2946 32.6326C52.2942 35.0654 51.8656 35.6269 52.1514 36.2507C52.4371 36.8745 57.5809 41.054 58.8669 43.0502C59.2241 43.6116 59.5098 44.1106 59.7956 44.5473C60.2957 45.3583 59.5813 46.4187 58.5097 46.4187H52.5086C52.0085 46.4187 51.5084 46.1692 51.2941 45.7949L50.7225 44.984C50.7225 44.984 47.079 41.2411 44.8643 40.0559C42.5782 38.933 42.6496 40.5549 42.6496 40.5549V43.8611C42.6496 45.2335 41.3637 46.3564 39.792 46.3564H38.3631C38.3631 46.3564 30.5046 46.3564 24.2177 38.1845C19.2883 31.8216 17.6451 27.7045 17.0736 25.3341C16.9307 24.5855 17.5737 23.8369 18.5024 23.8369Z" fill="black"/>
</svg>
