<svg width="77" height="69" viewBox="0 0 77 69" fill="none" xmlns="http://www.w3.org/2000/svg">
<rect x="1.36328" y="1.00049" width="73.7143" height="67" rx="23" fill="white" stroke="black" stroke-width="2"/>
<path d="M23.6136 24.6952C23.8909 22.6707 26.7413 19.9192 29.0035 20.2245L28.9999 20.2212C31.2014 20.6074 32.9441 24.1048 33.9268 25.6775C34.6231 26.8186 34.1709 27.9747 33.5215 28.4625C32.6454 29.1143 31.2753 30.0136 31.5628 30.9166C32.0738 32.5219 38.1411 38.1222 41.1253 39.7143C42.2548 40.3169 43.0739 38.7275 43.7733 37.9132C44.2815 37.2869 45.535 36.9125 46.7684 37.5308C48.6104 38.521 50.3457 39.6717 51.9504 40.9672C52.7517 41.5855 52.9398 42.4992 52.3845 43.4649C51.4065 45.1659 48.5777 47.4089 46.5242 46.953C42.9377 46.1571 28.4334 40.9672 23.7745 25.9314C23.5125 25.2201 23.5785 24.9512 23.6136 24.6952Z" fill="black"/>
<path fill-rule="evenodd" clip-rule="evenodd" d="M38.141 58.2834C35.1714 58.2834 33.5284 57.9892 30.8602 57.1633L25.7502 59.5217C22.5228 61.0112 18.7256 58.845 18.7256 55.5143V50.4429C13.4993 45.9447 11.4448 40.7582 11.4448 33.6419C11.4448 20.0328 23.3971 9.00049 38.141 9.00049C52.8848 9.00049 64.8372 20.0328 64.8372 33.6419C64.8372 47.2509 52.8848 58.2834 38.141 58.2834ZM23.5795 48.4947L22.0358 47.1661C17.9754 43.6714 16.2987 39.7644 16.2987 33.6419C16.2987 22.5072 26.0778 13.4808 38.141 13.4808C50.2043 13.4808 59.9833 22.5072 59.9833 33.6419C59.9833 44.7767 50.2043 53.8031 38.141 53.8031C35.7488 53.8031 34.6268 53.6037 32.4036 52.9156L30.4925 52.324L23.5795 55.5143V48.4947Z" fill="#0F0F0F"/>
<path fill-rule="evenodd" clip-rule="evenodd" d="M38.141 58.2834C35.1714 58.2834 33.5284 57.9892 30.8602 57.1633L25.7502 59.5217C22.5228 61.0112 18.7256 58.845 18.7256 55.5143V50.4429C13.4993 45.9447 11.4448 40.7582 11.4448 33.6419C11.4448 20.0328 23.3971 9.00049 38.141 9.00049C52.8848 9.00049 64.8372 20.0328 64.8372 33.6419C64.8372 47.2509 52.8848 58.2834 38.141 58.2834ZM23.5795 48.4947L22.0358 47.1661C17.9754 43.6714 16.2987 39.7644 16.2987 33.6419C16.2987 22.5072 26.0778 13.4808 38.141 13.4808C50.2043 13.4808 59.9833 22.5072 59.9833 33.6419C59.9833 44.7767 50.2043 53.8031 38.141 53.8031C35.7488 53.8031 34.6268 53.6037 32.4036 52.9156L30.4925 52.324L23.5795 55.5143V48.4947Z" fill="black" fill-opacity="0.2"/>
</svg>
